<?xml version="1.0" encoding="UTF-8"?>
<svg version="1.1" xmlns="http://www.w3.org/2000/svg" width="600" height="600">
<path d="M0 0 C198 0 396 0 600 0 C600 198 600 396 600 600 C402 600 204 600 0 600 C0 402 0 204 0 0 Z " fill="#06082C" transform="translate(0,0)"/>
<path d="M0 0 C0.70382812 0.50015625 1.40765625 1.0003125 2.1328125 1.515625 C2.75414062 1.95390625 3.37546875 2.3921875 4.015625 2.84375 C10.27388073 7.72687331 18.31474444 16.49879499 19.42042542 24.6309967 C19.44543373 25.7670359 19.44543373 25.7670359 19.47094727 26.92602539 C19.49339005 27.7911525 19.51583282 28.6562796 19.53895569 29.54762268 C19.5564109 30.94137367 19.5564109 30.94137367 19.57421875 32.36328125 C19.59487648 33.81389198 19.59487648 33.81389198 19.61595154 35.29380798 C19.63921568 37.34221695 19.6564851 39.39070148 19.66821289 41.43920898 C19.69501445 44.54360208 19.76989892 47.64451898 19.84570312 50.74804688 C19.99092012 61.6884272 19.98959444 70.08555242 12.1328125 78.515625 C11.67608154 79.06839111 11.21935059 79.62115723 10.7487793 80.19067383 C9.54296875 81.6015625 9.54296875 81.6015625 7.1953125 83.890625 C6.42316406 84.66148437 5.65101563 85.43234375 4.85546875 86.2265625 C2.1328125 88.515625 2.1328125 88.515625 0.06542969 89.52172852 C-2.26845458 90.67438898 -4.01676693 91.67581246 -5.8671875 93.515625 C-6.94826118 97.25031153 -6.85195004 100.83898484 -6.7421875 104.703125 C-6.73201027 106.69659031 -6.72904126 108.6901096 -6.734375 110.68359375 C-6.70512939 112.00266724 -6.70512939 112.00266724 -6.67529297 113.34838867 C-6.8671875 115.515625 -6.8671875 115.515625 -8.8671875 117.515625 C-10.5171875 117.515625 -12.1671875 117.515625 -13.8671875 117.515625 C-13.8671875 121.475625 -13.8671875 125.435625 -13.8671875 129.515625 C-12.2171875 129.515625 -10.5671875 129.515625 -8.8671875 129.515625 C-6.18231585 132.20049665 -6.60949301 133.58039481 -6.6015625 137.328125 C-6.59769531 139.06449219 -6.59769531 139.06449219 -6.59375 140.8359375 C-6.60148437 142.05023438 -6.60921875 143.26453125 -6.6171875 144.515625 C-6.60558594 146.33707031 -6.60558594 146.33707031 -6.59375 148.1953125 C-6.59632813 149.35289062 -6.59890625 150.51046875 -6.6015625 151.703125 C-6.60381836 152.76917969 -6.60607422 153.83523438 -6.60839844 154.93359375 C-6.8671875 157.515625 -6.8671875 157.515625 -8.8671875 159.515625 C-11.44782879 159.66060485 -13.91662634 159.70240045 -16.4921875 159.640625 C-17.19859375 159.63160156 -17.905 159.62257813 -18.6328125 159.61328125 C-20.37774848 159.58970103 -22.12251045 159.55382961 -23.8671875 159.515625 C-23.84398437 160.14210938 -23.82078125 160.76859375 -23.796875 161.4140625 C-23.77882813 162.23132813 -23.76078125 163.04859375 -23.7421875 163.890625 C-23.71898437 164.70273437 -23.69578125 165.51484375 -23.671875 166.3515625 C-23.8671875 168.515625 -23.8671875 168.515625 -25.8671875 170.515625 C-28.90820313 170.77441406 -28.90820313 170.77441406 -32.7734375 170.78125 C-33.79419373 170.78412018 -33.79419373 170.78412018 -34.83557129 170.78704834 C-36.27466196 170.78840963 -37.71376494 170.78471705 -39.15283203 170.77636719 C-41.35867837 170.76566628 -43.56371031 170.77626372 -45.76953125 170.7890625 C-47.16666847 170.78774089 -48.56380518 170.78517848 -49.9609375 170.78125 C-51.23646484 170.77899414 -52.51199219 170.77673828 -53.82617188 170.77441406 C-56.8671875 170.515625 -56.8671875 170.515625 -58.8671875 168.515625 C-59.07836914 165.47492981 -59.07836914 165.47492981 -59.02734375 161.51489258 C-59.02132645 160.79432678 -59.01530914 160.07376099 -59.0091095 159.33135986 C-58.99589827 157.76367953 -58.97875701 156.1960286 -58.95819092 154.62842751 C-58.9196596 151.29178374 -58.91745503 147.95544398 -58.91339111 144.61860943 C-58.90565085 138.40430605 -58.88420207 132.19102383 -58.79541016 125.97729492 C-58.735064 121.65608068 -58.72364549 117.33709559 -58.74411011 113.01553917 C-58.74283591 111.37167814 -58.72361784 109.72772604 -58.68582153 108.08429909 C-58.20896822 98.93899839 -58.20896822 98.93899839 -62.01953125 91.04208374 C-64.56049963 89.26794916 -67.11060199 87.91943744 -69.8671875 86.515625 C-76.60070601 80.88329013 -82.06784757 73.9136448 -84.8671875 65.515625 C-84.98876521 62.50270819 -85.05540882 59.51372151 -85.0703125 56.5 C-85.07601257 55.61080872 -85.08171265 54.72161743 -85.08758545 53.80548096 C-85.09703193 51.92257882 -85.10356804 50.03966017 -85.10742188 48.15673828 C-85.11710384 45.29039231 -85.14812059 42.42477074 -85.1796875 39.55859375 C-85.18622029 37.72656674 -85.19146968 35.89453462 -85.1953125 34.0625 C-85.2076593 33.21121521 -85.2200061 32.35993042 -85.23272705 31.48284912 C-85.19212132 20.51466981 -79.47566272 13.24302139 -72.2421875 5.453125 C-52.49169338 -13.62277919 -22.4422388 -14.66522535 0 0 Z " fill="#06092E" transform="translate(332.8671875,204.484375)"/>
<path d="M0 0 C2.86901894 1.48432481 2.86901894 1.48432481 5.5078125 0.57421875 C6.32636719 0.11917969 7.14492188 -0.33585938 7.98828125 -0.8046875 C8.93703125 -1.26746094 9.88578125 -1.73023438 10.86328125 -2.20703125 C11.89453125 -2.71363281 12.92578125 -3.22023437 13.98828125 -3.7421875 C30.18149974 -11.14221695 48.39371183 -12.4102953 65.4609375 -7.12890625 C85.92877017 0.55503093 100.3041917 13.71320293 109.98828125 33.1953125 C112.07042175 38.14489908 113.15270263 42.89578684 113.98828125 48.1953125 C114.92027344 48.47503906 115.85226562 48.75476563 116.8125 49.04296875 C130.07954627 53.15815318 141.52284161 58.90272386 151.98828125 68.1953125 C152.6740625 68.78699219 153.35984375 69.37867188 154.06640625 69.98828125 C168.15248575 82.99294914 177.19461108 103.07402468 178.375 122.10546875 C179.11887698 143.42103771 172.5952903 163.66121429 158.98828125 180.1953125 C158.385 180.97261719 157.78171875 181.74992188 157.16015625 182.55078125 C145.47858288 196.80917227 126.23208137 206.50510256 108.12635803 208.99058533 C103.70847517 209.41361067 99.2740236 209.337006 94.83984375 209.328125 C93.7867099 209.32908173 92.73357605 209.33003845 91.64852905 209.33102417 C89.4347935 209.33170198 87.22105591 209.32987566 85.00732422 209.32568359 C81.6037965 209.32029749 78.20039882 209.32565853 74.796875 209.33203125 C72.64453096 209.33137103 70.492187 209.33009103 68.33984375 209.328125 C67.31702301 209.33014923 66.29420227 209.33217346 65.24038696 209.33425903 C64.30206024 209.33110687 63.36373352 209.32795471 62.39697266 209.32470703 C61.56759186 209.32391144 60.73821106 209.32311584 59.88369751 209.32229614 C57.98828125 209.1953125 57.98828125 209.1953125 56.98828125 208.1953125 C56.86328125 205.6953125 56.86328125 205.6953125 56.98828125 203.1953125 C58.52288231 201.66071144 59.93186434 202.05571705 62.07055664 202.03759766 C62.93979263 202.02733551 63.80902863 202.01707336 64.7046051 202.00650024 C65.65544479 201.99919891 66.60628448 201.99189758 67.5859375 201.984375 C69.60612712 201.95625104 71.62630928 201.92758641 73.64648438 201.8984375 C76.82526999 201.8575872 80.0039244 201.82070696 83.18286133 201.79394531 C106.49537972 201.88133583 106.49537972 201.88133583 128.30078125 194.5078125 C128.95828369 194.15895996 129.61578613 193.81010742 130.29321289 193.45068359 C150.0151496 182.72653439 161.37793959 167.52399303 167.98828125 146.1953125 C168.23578125 145.43992187 168.48328125 144.68453125 168.73828125 143.90625 C173.72518065 125.96726465 168.80874441 106.6872747 160.00415039 90.9296875 C149.53616104 73.05787871 133.91435048 62.50001709 114.3449707 56.89379883 C109.18732967 55.39436092 109.18732967 55.39436092 106.98828125 53.1953125 C106.34467522 50.71742929 105.77540198 48.25836018 105.23828125 45.7578125 C101.81063322 31.09482273 93.3146743 18.0271992 80.98828125 9.1953125 C65.16523946 -0.49998472 47.68380329 -4.53694317 29.26953125 -1.11328125 C20.82374125 1.2897471 13.26911167 5.34142555 5.98828125 10.1953125 C1.39326325 9.92360709 -2.17765208 7.56150119 -6.07421875 5.3203125 C-20.66343692 -2.64803908 -37.2527192 -4.44060973 -53.44921875 -0.2421875 C-71.47909483 5.84527359 -84.34187727 16.39880033 -93.01171875 33.1953125 C-95.65489395 38.85834728 -97.02415509 44.30721747 -98.265625 50.40234375 C-99.01171875 53.1953125 -99.01171875 53.1953125 -101.01171875 55.1953125 C-102.61910234 55.69365902 -104.24893311 56.12091531 -105.88671875 56.5078125 C-116.44603262 59.28222046 -125.44480571 63.40228675 -134.01171875 70.1953125 C-135.26275391 71.18144531 -135.26275391 71.18144531 -136.5390625 72.1875 C-149.39628865 83.00421106 -158.44981386 98.50605107 -161.01171875 115.1953125 C-162.89001993 138.37425946 -158.75933477 158.15694167 -144.26171875 176.5703125 C-132.33947954 190.13322683 -115.38460317 199.9285527 -97.18484497 201.42825317 C-89.52761984 201.80120116 -81.86395646 201.80721318 -74.19921875 201.8203125 C-70.75396373 201.83666237 -67.3089794 201.8585963 -63.86384583 201.89193726 C-61.73491962 201.91156829 -59.60586814 201.92090203 -57.47685242 201.91885376 C-56.52438126 201.92581268 -55.5719101 201.93277161 -54.59057617 201.93994141 C-53.75201584 201.94120026 -52.91345551 201.94245911 -52.04948425 201.9437561 C-50.01171875 202.1953125 -50.01171875 202.1953125 -48.01171875 204.1953125 C-48.54743304 207.73102679 -48.54743304 207.73102679 -50.01171875 209.1953125 C-51.49166288 209.30929981 -52.97695673 209.35487397 -54.46118164 209.37231445 C-55.88516014 209.39156731 -55.88516014 209.39156731 -57.33790588 209.41120911 C-58.37624069 209.41859604 -59.4145755 209.42598297 -60.484375 209.43359375 C-61.55481552 209.4416655 -62.62525604 209.44973724 -63.72813416 209.45805359 C-66.00892506 209.47192823 -68.28973702 209.48263515 -70.57055664 209.49047852 C-74.00774968 209.50748365 -77.44392761 209.55131242 -80.88085938 209.59570312 C-96.33099201 209.70676306 -110.55983968 208.8885462 -124.44921875 201.3828125 C-125.10897705 201.04024414 -125.76873535 200.69767578 -126.44848633 200.34472656 C-131.766891 197.50597656 -136.45499763 194.14133904 -141.01171875 190.1953125 C-141.82640625 189.56882812 -142.64109375 188.94234375 -143.48046875 188.296875 C-157.1739814 176.92787838 -166.02676116 158.5433896 -169.01171875 141.1953125 C-170.53118927 117.08917465 -167.58482225 95.11971251 -151.57421875 76.1953125 C-139.37095148 62.39062671 -124.1936365 52.32756653 -106.01171875 48.1953125 C-105.80417969 47.33550781 -105.59664062 46.47570312 -105.3828125 45.58984375 C-100.22408946 25.7967516 -89.06644853 9.41195182 -71.26171875 -1.0546875 C-64.82752751 -4.69749154 -58.20341706 -7.05375132 -51.01171875 -8.8046875 C-49.86316406 -9.09085938 -49.86316406 -9.09085938 -48.69140625 -9.3828125 C-31.27431537 -12.12486179 -15.08668544 -8.75772339 0 0 Z " fill="#1FE1EF" transform="translate(296.01171875,146.8046875)"/>
<path d="M0 0 C0.70382812 0.50015625 1.40765625 1.0003125 2.1328125 1.515625 C2.75414062 1.95390625 3.37546875 2.3921875 4.015625 2.84375 C10.27388073 7.72687331 18.31474444 16.49879499 19.42042542 24.6309967 C19.44543373 25.7670359 19.44543373 25.7670359 19.47094727 26.92602539 C19.49339005 27.7911525 19.51583282 28.6562796 19.53895569 29.54762268 C19.5564109 30.94137367 19.5564109 30.94137367 19.57421875 32.36328125 C19.59487648 33.81389198 19.59487648 33.81389198 19.61595154 35.29380798 C19.63921568 37.34221695 19.6564851 39.39070148 19.66821289 41.43920898 C19.69501445 44.54360208 19.76989892 47.64451898 19.84570312 50.74804688 C19.99092012 61.6884272 19.98959444 70.08555242 12.1328125 78.515625 C11.67608154 79.06839111 11.21935059 79.62115723 10.7487793 80.19067383 C9.54296875 81.6015625 9.54296875 81.6015625 7.1953125 83.890625 C6.42316406 84.66148437 5.65101563 85.43234375 4.85546875 86.2265625 C2.1328125 88.515625 2.1328125 88.515625 0.06542969 89.52172852 C-2.26845458 90.67438898 -4.01676693 91.67581246 -5.8671875 93.515625 C-6.94826118 97.25031153 -6.85195004 100.83898484 -6.7421875 104.703125 C-6.73201027 106.69659031 -6.72904126 108.6901096 -6.734375 110.68359375 C-6.70512939 112.00266724 -6.70512939 112.00266724 -6.67529297 113.34838867 C-6.8671875 115.515625 -6.8671875 115.515625 -8.8671875 117.515625 C-10.5171875 117.515625 -12.1671875 117.515625 -13.8671875 117.515625 C-13.8671875 121.475625 -13.8671875 125.435625 -13.8671875 129.515625 C-12.2171875 129.515625 -10.5671875 129.515625 -8.8671875 129.515625 C-6.18231585 132.20049665 -6.60949301 133.58039481 -6.6015625 137.328125 C-6.59769531 139.06449219 -6.59769531 139.06449219 -6.59375 140.8359375 C-6.60148437 142.05023438 -6.60921875 143.26453125 -6.6171875 144.515625 C-6.60558594 146.33707031 -6.60558594 146.33707031 -6.59375 148.1953125 C-6.59632813 149.35289062 -6.59890625 150.51046875 -6.6015625 151.703125 C-6.60381836 152.76917969 -6.60607422 153.83523438 -6.60839844 154.93359375 C-6.8671875 157.515625 -6.8671875 157.515625 -8.8671875 159.515625 C-11.44782879 159.66060485 -13.91662634 159.70240045 -16.4921875 159.640625 C-17.19859375 159.63160156 -17.905 159.62257813 -18.6328125 159.61328125 C-20.37774848 159.58970103 -22.12251045 159.55382961 -23.8671875 159.515625 C-23.84398437 160.14210938 -23.82078125 160.76859375 -23.796875 161.4140625 C-23.77882813 162.23132813 -23.76078125 163.04859375 -23.7421875 163.890625 C-23.71898437 164.70273437 -23.69578125 165.51484375 -23.671875 166.3515625 C-23.8671875 168.515625 -23.8671875 168.515625 -25.8671875 170.515625 C-28.90820313 170.77441406 -28.90820313 170.77441406 -32.7734375 170.78125 C-33.79419373 170.78412018 -33.79419373 170.78412018 -34.83557129 170.78704834 C-36.27466196 170.78840963 -37.71376494 170.78471705 -39.15283203 170.77636719 C-41.35867837 170.76566628 -43.56371031 170.77626372 -45.76953125 170.7890625 C-47.16666847 170.78774089 -48.56380518 170.78517848 -49.9609375 170.78125 C-51.23646484 170.77899414 -52.51199219 170.77673828 -53.82617188 170.77441406 C-56.8671875 170.515625 -56.8671875 170.515625 -58.8671875 168.515625 C-59.07836914 165.47492981 -59.07836914 165.47492981 -59.02734375 161.51489258 C-59.02132645 160.79432678 -59.01530914 160.07376099 -59.0091095 159.33135986 C-58.99589827 157.76367953 -58.97875701 156.1960286 -58.95819092 154.62842751 C-58.9196596 151.29178374 -58.91745503 147.95544398 -58.91339111 144.61860943 C-58.90565085 138.40430605 -58.88420207 132.19102383 -58.79541016 125.97729492 C-58.735064 121.65608068 -58.72364549 117.33709559 -58.74411011 113.01553917 C-58.74283591 111.37167814 -58.72361784 109.72772604 -58.68582153 108.08429909 C-58.20896822 98.93899839 -58.20896822 98.93899839 -62.01953125 91.04208374 C-64.56049963 89.26794916 -67.11060199 87.91943744 -69.8671875 86.515625 C-76.60070601 80.88329013 -82.06784757 73.9136448 -84.8671875 65.515625 C-84.98876521 62.50270819 -85.05540882 59.51372151 -85.0703125 56.5 C-85.07601257 55.61080872 -85.08171265 54.72161743 -85.08758545 53.80548096 C-85.09703193 51.92257882 -85.10356804 50.03966017 -85.10742188 48.15673828 C-85.11710384 45.29039231 -85.14812059 42.42477074 -85.1796875 39.55859375 C-85.18622029 37.72656674 -85.19146968 35.89453462 -85.1953125 34.0625 C-85.2076593 33.21121521 -85.2200061 32.35993042 -85.23272705 31.48284912 C-85.19212132 20.51466981 -79.47566272 13.24302139 -72.2421875 5.453125 C-52.49169338 -13.62277919 -22.4422388 -14.66522535 0 0 Z M-53.8671875 1.515625 C-55.12208984 2.134375 -55.12208984 2.134375 -56.40234375 2.765625 C-65.25133148 7.57991199 -73.90440878 15.05572573 -77.8671875 24.515625 C-78.44387576 27.62229688 -78.49890732 30.66192526 -78.50390625 33.81640625 C-78.51484818 34.69282272 -78.5257901 35.5692392 -78.5370636 36.47221375 C-78.55286148 38.31857454 -78.55814455 40.16505215 -78.5534668 42.01147461 C-78.55468012 44.81109981 -78.61446604 47.60547307 -78.67773438 50.40429688 C-78.83959708 62.94656418 -78.83959708 62.94656418 -72.74658203 73.64038086 C-72.12638184 74.25921143 -71.50618164 74.87804199 -70.8671875 75.515625 C-69.9388208 76.57438843 -69.9388208 76.57438843 -68.99169922 77.65454102 C-65.46010835 81.50350324 -62.49583872 83.6949525 -57.68017578 85.70166016 C-54.09982108 87.82839892 -53.05022932 88.83760336 -51.9508667 92.90985107 C-51.47865834 97.36466925 -51.58520133 101.81694929 -51.671875 106.2890625 C-51.66808537 107.93960103 -51.65989304 109.59013481 -51.64749146 111.2406311 C-51.62672235 115.57177571 -51.66554638 119.90039241 -51.71697998 124.23120117 C-51.75891566 128.65546578 -51.74423092 133.0795075 -51.734375 137.50390625 C-51.72337126 146.17542777 -51.780584 154.84452838 -51.8671875 163.515625 C-44.9371875 163.515625 -38.0071875 163.515625 -30.8671875 163.515625 C-30.5371875 160.545625 -30.2071875 157.575625 -29.8671875 154.515625 C-27.88501847 152.53345597 -24.03398691 153.10511576 -21.3046875 152.953125 C-17.623125 152.7365625 -17.623125 152.7365625 -13.8671875 152.515625 C-13.8671875 147.235625 -13.8671875 141.955625 -13.8671875 136.515625 C-15.8471875 136.185625 -17.8271875 135.855625 -19.8671875 135.515625 C-19.8671875 127.595625 -19.8671875 119.675625 -19.8671875 111.515625 C-16.8971875 111.020625 -16.8971875 111.020625 -13.8671875 110.515625 C-13.89449951 109.91613037 -13.92181152 109.31663574 -13.94995117 108.69897461 C-14.52818722 91.52254721 -14.52818722 91.52254721 -10.59765625 86.7734375 C-7.75271692 85.08437639 -4.92323544 83.77572148 -1.8671875 82.515625 C4.48658955 78.36497754 9.21983407 72.49328982 12.1328125 65.515625 C13.31178248 59.56221208 13.2666536 53.50241667 13.21020508 47.45556641 C13.19535928 44.64946784 13.27116824 41.85550875 13.35351562 39.05078125 C13.4725443 28.07532768 12.13407826 21.30272576 4.76513672 13.00732422 C-7.91019735 1.00913655 -21.31266874 -3.04200367 -38.37890625 -2.76171875 C-44.09563174 -2.52208125 -48.7826831 -1.08764125 -53.8671875 1.515625 Z " fill="#038EF9" transform="translate(332.8671875,204.484375)"/>
<path d="M0 0 C0.33 0 0.66 0 1 0 C1.4375 2.5 1.4375 2.5 1 6 C-0.52548963 8.04306647 -2.24686423 9.82130685 -3.9921875 11.6796875 C-10.97455445 19.74880417 -15.28027855 29.85619513 -17.47265625 40.23828125 C-17.875 42.125 -17.875 42.125 -19 45 C-21.58984375 46.01171875 -21.58984375 46.01171875 -25 47 C-45.7983897 54.09385414 -62.72078548 65.06267153 -73 85 C-81.44388042 102.75916234 -83.00619686 123.35802457 -77.3828125 142.33203125 C-69.96511811 162.00777994 -56.75641169 177.79329192 -37.30395508 186.62109375 C-22.78397489 192.68101011 -8.72017932 192.59845408 6.8125 192.625 C10.25775502 192.64134987 13.70273935 192.6632838 17.14787292 192.69662476 C19.27679913 192.71625579 21.40585061 192.72558953 23.53486633 192.72354126 C24.48733749 192.73050018 25.43980865 192.73745911 26.42114258 192.74462891 C27.25970291 192.74588776 28.09826324 192.74714661 28.9622345 192.7484436 C31 193 31 193 33 195 C32.46428571 198.53571429 32.46428571 198.53571429 31 200 C29.52005587 200.11398731 28.03476202 200.15956147 26.55053711 200.17700195 C25.12655861 200.19625481 25.12655861 200.19625481 23.67381287 200.21589661 C22.63547806 200.22328354 21.59714325 200.23067047 20.52734375 200.23828125 C19.45690323 200.246353 18.38646271 200.25442474 17.28358459 200.26274109 C15.00279369 200.27661573 12.72198173 200.28732265 10.44116211 200.29516602 C7.00396907 200.31217115 3.56779114 200.35599992 0.13085938 200.40039062 C-15.31927326 200.51145056 -29.54812093 199.6932337 -43.4375 192.1875 C-44.0972583 191.84493164 -44.7570166 191.50236328 -45.43676758 191.14941406 C-50.75517225 188.31066406 -55.44327888 184.94602654 -60 181 C-60.8146875 180.37351562 -61.629375 179.74703125 -62.46875 179.1015625 C-76.16226265 167.73256588 -85.01504241 149.3480771 -88 132 C-89.51947052 107.89386215 -86.5731035 85.92440001 -70.5625 67 C-58.35923273 53.19531421 -43.18191775 43.13225403 -25 39 C-24.79246094 38.14019531 -24.58492187 37.28039062 -24.37109375 36.39453125 C-21.70125381 26.15083576 -17.97211918 16.19921216 -11 8 C-9 7 -7 6 -5 5 C-3.2958946 3.37163262 -1.61974559 1.71230248 0 0 Z " fill="#1BEAF4" transform="translate(215,156)"/>
<path d="M0 0 C2.5 0.125 2.5 0.125 3.5 1.125 C3.59494733 3.49800869 3.62559319 5.84178703 3.61352539 8.21508789 C3.61367142 8.95650528 3.61381744 9.69792267 3.6139679 10.46180725 C3.61326865 12.92378621 3.60547574 15.38569043 3.59765625 17.84765625 C3.59579211 19.55016539 3.59436819 21.25267507 3.59336853 22.95518494 C3.58954302 27.44493073 3.57971247 31.93464438 3.56866455 36.42437744 C3.55845113 41.00231491 3.55387106 45.58025756 3.54882812 50.15820312 C3.53809022 59.14714957 3.52101341 68.13607212 3.5 77.125 C4.44327148 77.2593042 5.38654297 77.3936084 6.35839844 77.53198242 C9.8370194 78.18861673 11.17823646 79.07330005 13.75 81.4375 C14.41515625 82.03175781 15.0803125 82.62601562 15.765625 83.23828125 C20.34855076 88.2237613 19.92091082 93.2310034 19.8125 99.76953125 C19.28159374 105.47013725 16.61499477 108.22042461 12.5625 111.875 C6.78799145 116.11749608 1.60014766 117.18407834 -5.5 116.125 C-12.05439374 113.41360977 -16.73217303 108.65754076 -19.5 102.125 C-20.44398163 95.05611427 -19.77352686 88.94174489 -15.5 83.125 C-11.96073309 79.13835384 -8.74950536 77.81957244 -3.5 77.125 C-3.50222061 76.17508682 -3.50444122 75.22517365 -3.50672913 74.24647522 C-3.52696127 65.31408904 -3.54197249 56.38170748 -3.55181217 47.44930363 C-3.55704082 42.8565736 -3.56413812 38.263862 -3.57543945 33.67114258 C-3.586269 29.24266312 -3.59227698 24.81420144 -3.59487724 20.38570976 C-3.59673137 18.69234372 -3.60035175 16.99897871 -3.60573006 15.30562019 C-3.6129414 12.94208768 -3.6139909 10.57862955 -3.61352539 8.21508789 C-3.61712067 7.50802704 -3.62071594 6.80096619 -3.62442017 6.07247925 C-3.61178169 0.18058908 -3.61178169 0.18058908 0 0 Z " fill="#146AE4" transform="translate(215.5,366.875)"/>
<path d="M0 0 C4.70588235 0.70588235 4.70588235 0.70588235 6 2 C6.09492722 4.34253782 6.12559791 6.65546104 6.11352539 8.99829102 C6.11367142 9.72995483 6.11381744 10.46161865 6.1139679 11.2154541 C6.11326867 13.64496784 6.10547585 16.07440583 6.09765625 18.50390625 C6.0957921 20.18399514 6.09436819 21.86408457 6.09336853 23.54417419 C6.08954307 27.97473643 6.07971256 32.4052661 6.06866455 36.83581543 C6.05845103 41.35342976 6.05387104 45.87104934 6.04882812 50.38867188 C6.03809031 59.25912893 6.02101356 68.12956176 6 77 C6.9485083 77.13954102 7.8970166 77.27908203 8.87426758 77.42285156 C12.08905551 78.01644359 13.31378693 78.60314529 15.6875 80.75 C16.24824219 81.23984375 16.80898438 81.7296875 17.38671875 82.234375 C22.18109656 87.48149066 22.58231377 91.84748242 22.41796875 98.765625 C21.64111021 104.7772032 18.7948262 108.25119498 14.5625 112.375 C9.01994737 115.88978947 3.46008796 116.89221495 -3 116 C-9.16398594 113.90775274 -14.11921074 108.76157851 -17 103 C-17.93462979 91.04899609 -17.93462979 91.04899609 -15.375 85.4375 C-10.80524724 80.74749059 -7.75512232 77.8749671 -1 77 C-1.00222061 76.05008682 -1.00444122 75.10017365 -1.00672913 74.12147522 C-1.02696127 65.18908904 -1.04197249 56.25670748 -1.05181217 47.32430363 C-1.05704082 42.7315736 -1.06413812 38.138862 -1.07543945 33.54614258 C-1.086269 29.11766312 -1.09227698 24.68920144 -1.09487724 20.26070976 C-1.09673137 18.56734372 -1.10035175 16.87397871 -1.10573006 15.18062019 C-1.1129414 12.81708768 -1.1139909 10.45362955 -1.11352539 8.09008789 C-1.11712067 7.38302704 -1.12071594 6.67596619 -1.12442017 5.94747925 C-1.11405216 1.11405216 -1.11405216 1.11405216 0 0 Z " fill="#2155D4" transform="translate(382,367)"/>
<path d="M0 0 C2.475 0.495 2.475 0.495 5 1 C5.33 21.79 5.66 42.58 6 64 C8.31 64.99 10.62 65.98 13 67 C17.40844276 70.90748335 21.49525472 74.8792926 22.23828125 80.9453125 C22.44470972 87.00779079 21.43906758 91.92237391 18 97 C12.10798461 102.65491216 6.96102158 104.4226715 -1.140625 104.34765625 C-6.84214543 103.6544386 -10.4723441 100.56785737 -14.375 96.5625 C-17.70461355 91.31195555 -18.73259274 86.17299454 -18 80 C-16.21751233 73.64988768 -12.46372236 69.5424134 -7 66 C-5.34096769 65.63054 -3.67430166 65.29257964 -2 65 C-2.00444122 64.21517242 -2.00888245 63.43034485 -2.01345825 62.62173462 C-2.05348917 55.23486042 -2.08396099 47.84803862 -2.10362434 40.46108437 C-2.11407321 36.66313688 -2.12825236 32.86527882 -2.15087891 29.06738281 C-2.17256821 25.40398654 -2.18456031 21.74067643 -2.18975449 18.07722092 C-2.19345731 16.67773456 -2.20068777 15.27825305 -2.21146011 13.87880325 C-2.22592225 11.92266669 -2.22681647 9.96644391 -2.22705078 8.01025391 C-2.231492 6.8955069 -2.23593323 5.78075989 -2.24050903 4.63223267 C-2 2 -2 2 0 0 Z " fill="#195FDB" transform="translate(298,388)"/>
<path d="M0 0 C0.70382812 0.50015625 1.40765625 1.0003125 2.1328125 1.515625 C2.75414062 1.95390625 3.37546875 2.3921875 4.015625 2.84375 C10.36711777 7.79962329 15.95466536 15.10797774 19.1328125 22.515625 C19.38677979 24.67810059 19.38677979 24.67810059 19.39160156 27.03710938 C19.39790588 27.92483032 19.40421021 28.81255127 19.41070557 29.72717285 C19.4066571 30.67829956 19.40260864 31.62942627 19.3984375 32.609375 C19.40035095 33.59305054 19.4022644 34.57672607 19.40423584 35.59020996 C19.40559563 37.66805274 19.40191357 39.74590406 19.39355469 41.82373047 C19.38285238 45.00377489 19.39345707 48.18325439 19.40625 51.36328125 C19.40492837 53.38281375 19.4023659 55.40234589 19.3984375 57.421875 C19.40248596 58.37300171 19.40653442 59.32412842 19.41070557 60.30407715 C19.40124908 61.63565857 19.40124908 61.63565857 19.39160156 62.99414062 C19.39001038 63.77261353 19.38841919 64.55108643 19.38677979 65.35314941 C19.0960499 67.82865044 18.49159291 69.42935372 17.1328125 71.515625 C14.5703125 72.140625 14.5703125 72.140625 12.1328125 72.515625 C11.8028125 73.175625 11.4728125 73.835625 11.1328125 74.515625 C9.49138287 75.5565316 7.82569035 76.56066826 6.1328125 77.515625 C6.4009375 77.020625 6.6690625 76.525625 6.9453125 76.015625 C10.21961546 69.12235562 11.62705078 63.55231312 11.7421875 55.96875 C11.75928772 55.07629578 11.77638794 54.18384155 11.79400635 53.26434326 C11.82218985 51.38531987 11.84189171 49.50615192 11.85351562 47.62695312 C11.88261343 44.78506776 11.97576521 41.94973319 12.0703125 39.109375 C12.25309221 28.61612659 11.699919 21.89286017 4.55126953 13.77807617 C-8.10622154 1.93707378 -21.43559994 -2.03998473 -38.37890625 -1.76171875 C-44.09433813 -1.52213547 -48.78499949 -0.09041709 -53.8671875 2.515625 C-55.13949219 3.15177734 -55.13949219 3.15177734 -56.4375 3.80078125 C-64.98773674 8.49425983 -73.00913386 15.35346458 -76.8671875 24.515625 C-77.44485372 27.62212104 -77.49890734 30.66193977 -77.50390625 33.81640625 C-77.51484818 34.69282272 -77.5257901 35.5692392 -77.5370636 36.47221375 C-77.55286148 38.31857454 -77.55814455 40.16505215 -77.5534668 42.01147461 C-77.55468012 44.81109981 -77.61446604 47.60547307 -77.67773438 50.40429688 C-77.83590829 62.95268482 -77.83590829 62.95268482 -71.74658203 73.65869141 C-71.12638184 74.27147949 -70.50618164 74.88426758 -69.8671875 75.515625 C-69.1971167 76.23339111 -68.5270459 76.95115723 -67.83666992 77.69067383 C-64.68990818 81.04597781 -64.68990818 81.04597781 -60.8671875 83.515625 C-61.8671875 86.515625 -61.8671875 86.515625 -63.5546875 87.390625 C-67.89645817 87.62531531 -71.14799137 85.16034127 -74.28125 82.3515625 C-75.01085937 81.53945313 -75.74046875 80.72734375 -76.4921875 79.890625 C-77.22695312 79.09398437 -77.96171875 78.29734375 -78.71875 77.4765625 C-83.69641362 70.61643701 -85.47724069 64.31763896 -85.36328125 55.9140625 C-85.36473648 55.0333609 -85.36619171 54.1526593 -85.36769104 53.24526978 C-85.36604282 51.39817977 -85.35460359 49.55107447 -85.33374023 47.70410156 C-85.30468806 44.89067905 -85.31317362 42.0791345 -85.32617188 39.265625 C-85.31993581 37.46092843 -85.31154589 35.65623774 -85.30078125 33.8515625 C-85.30371689 33.01910004 -85.30665253 32.18663757 -85.30967712 31.32894897 C-85.13551066 20.46397606 -79.41263138 13.17514148 -72.2421875 5.453125 C-52.49169338 -13.62277919 -22.4422388 -14.66522535 0 0 Z " fill="#19D7F2" transform="translate(332.8671875,204.484375)"/>
<path d="M0 0 C13.7215223 9.92620762 21.67250273 28.49161955 24.67041016 44.72998047 C27.71806851 65.7204452 22.33275788 87.62896334 10.0625 104.9375 C8.72833219 106.64085547 7.37489376 108.32934421 6 110 C5.39671875 110.77730469 4.7934375 111.55460937 4.171875 112.35546875 C-7.50969837 126.61385977 -26.75619988 136.30979006 -44.86192322 138.79527283 C-49.27980608 139.21829817 -53.71425765 139.1416935 -58.1484375 139.1328125 C-59.20157135 139.13376923 -60.2547052 139.13472595 -61.3397522 139.13571167 C-63.55348775 139.13638948 -65.76722534 139.13456316 -67.98095703 139.13037109 C-71.38448475 139.12498499 -74.78788243 139.13034603 -78.19140625 139.13671875 C-80.34375029 139.13605853 -82.49609425 139.13477853 -84.6484375 139.1328125 C-85.67125824 139.13483673 -86.69407898 139.13686096 -87.74789429 139.13894653 C-88.68622101 139.13579437 -89.62454773 139.13264221 -90.59130859 139.12939453 C-91.42068939 139.12859894 -92.25007019 139.12780334 -93.10458374 139.12698364 C-95 139 -95 139 -96 138 C-96.125 135.5 -96.125 135.5 -96 133 C-94.46539894 131.46539894 -93.05641691 131.86040455 -90.91772461 131.84228516 C-90.04848862 131.83202301 -89.17925262 131.82176086 -88.28367615 131.81118774 C-87.33283646 131.80388641 -86.38199677 131.79658508 -85.40234375 131.7890625 C-83.38215413 131.76093854 -81.36197197 131.73227391 -79.34179688 131.703125 C-76.16301126 131.6622747 -72.98435685 131.62539446 -69.80541992 131.59863281 C-46.49290153 131.68602333 -46.49290153 131.68602333 -24.6875 124.3125 C-24.02999756 123.96364746 -23.37249512 123.61479492 -22.69506836 123.25537109 C-2.97313165 112.53122189 8.38965834 97.32868053 15 76 C15.37125 74.86691406 15.37125 74.86691406 15.75 73.7109375 C20.73935302 55.76312595 15.80790669 36.50987619 7.02099609 20.73828125 C4.65840878 16.71589443 1.97392058 12.90822303 -0.75 9.125 C-1.4925 8.09375 -2.235 7.0625 -3 6 C-2.01 4.02 -1.02 2.04 0 0 Z " fill="#0E70EA" transform="translate(449,217)"/>
<path d="M0 0 C2.5 0.125 2.5 0.125 3.5 1.125 C3.58858646 3.86394085 3.61523479 6.5775327 3.59765625 9.31640625 C3.5962413 10.13624496 3.59482635 10.95608368 3.59336853 11.80076599 C3.58775289 14.42971382 3.57519779 17.05857773 3.5625 19.6875 C3.55748701 21.46549357 3.55292376 23.24348846 3.54882812 25.02148438 C3.53777839 29.38935545 3.52050331 33.75716348 3.5 38.125 C4.28624756 38.27050293 5.07249512 38.41600586 5.88256836 38.56591797 C11.24454825 39.71123407 14.63515318 43.01622202 17.9375 47.25 C20.63475756 52.60948581 20.4392682 58.70841193 18.875 64.3984375 C16.26552546 70.47944513 11.32220997 74.21389502 5.5 77.125 C0.05121309 77.62256886 -4.85655002 77.88585647 -9.875 75.5625 C-15.84244942 70.02129697 -20.3765133 65.22730046 -20.9375 56.8125 C-20.78873097 50.85182084 -18.0766334 46.78257477 -14.0078125 42.5859375 C-11.05475398 39.96949705 -8.1543215 38.49537056 -4.5 37.125 C-4.47494385 36.03968994 -4.4498877 34.95437988 -4.42407227 33.83618164 C-4.33016245 29.823684 -4.22990233 25.81136618 -4.12768555 21.79907227 C-4.08427427 20.05985712 -4.04260388 18.32059765 -4.00268555 16.58129883 C-3.94513232 14.08661512 -3.8813958 11.5921559 -3.81640625 9.09765625 C-3.79969376 8.31536148 -3.78298126 7.53306671 -3.76576233 6.72706604 C-3.58454511 0.17922726 -3.58454511 0.17922726 0 0 Z " fill="#1368E3" transform="translate(342.5,366.875)"/>
<path d="M0 0 C0 12.21 0 24.42 0 37 C1.98 37.33 3.96 37.66 6 38 C10.97960879 41.16567074 15.18247548 45.32023587 17 51 C17.96701168 57.56099067 16.67011431 62.51881621 13 68 C9.02299181 72.83690186 4.87241813 75.35780794 -1.35546875 76.390625 C-7.43941888 76.80565416 -11.23120252 75.3555126 -16.0859375 71.71875 C-20.51741438 67.73946463 -22.50733787 63.6107769 -23.30859375 57.73828125 C-23.68712927 50.61493108 -21.74145813 46.29103623 -17 41 C-13.72212189 38.01938044 -11.57237035 37 -7 37 C-7 24.79 -7 12.58 -7 0 C-5 -1 -5 -1 0 0 Z " fill="#0C73E9" transform="translate(261,368)"/>
<path d="M0 0 C0.33 0 0.66 0 1 0 C1.02578125 0.969375 1.0515625 1.93875 1.078125 2.9375 C1.89299796 24.71408811 8.42272259 43.28726801 24 59 C43.66951885 76.27079704 63.74105478 78.58215198 88.8125 78.625 C92.25775502 78.64134987 95.70273935 78.6632838 99.14787292 78.69662476 C101.27679913 78.71625579 103.40585061 78.72558953 105.53486633 78.72354126 C106.48733749 78.73050018 107.43980865 78.73745911 108.42114258 78.74462891 C109.25970291 78.74588776 110.09826324 78.74714661 110.9622345 78.7484436 C113 79 113 79 115 81 C114.46428571 84.53571429 114.46428571 84.53571429 113 86 C111.52005587 86.11398731 110.03476202 86.15956147 108.55053711 86.17700195 C107.12655861 86.19625481 107.12655861 86.19625481 105.67381287 86.21589661 C104.11631065 86.22697701 104.11631065 86.22697701 102.52734375 86.23828125 C101.45690323 86.246353 100.38646271 86.25442474 99.28358459 86.26274109 C97.00279369 86.27661573 94.72198173 86.28732265 92.44116211 86.29516602 C89.00396907 86.31217115 85.56779114 86.35599992 82.13085938 86.40039062 C66.68072674 86.51145056 52.45187907 85.6932337 38.5625 78.1875 C37.9027417 77.84493164 37.2429834 77.50236328 36.56323242 77.14941406 C31.24482775 74.31066406 26.55672112 70.94602654 22 67 C21.1853125 66.37351562 20.370625 65.74703125 19.53125 65.1015625 C12.12879277 58.95569523 0.75383267 45.9003763 -0.21044922 35.79443359 C-0.21427476 33.86168604 -0.115967 31.92926913 0 30 C0.66 30 1.32 30 2 30 C1.67257813 28.9171875 1.34515625 27.834375 1.0078125 26.71875 C-0.3422828 21.31836881 -0.21942455 16.03473153 -0.125 10.5 C-0.11597656 9.48679687 -0.10695312 8.47359375 -0.09765625 7.4296875 C-0.07429007 4.95287199 -0.04153168 2.47656621 0 0 Z " fill="#14C3F1" transform="translate(133,270)"/>
<path d="M0 0 C1.093125 -0.02384766 2.18625 -0.04769531 3.3125 -0.07226562 C11.15957721 -0.05784085 11.15957721 -0.05784085 14.71484375 2.56640625 C16.41044832 6.51938103 16.62506634 9.80062792 16.5625 14.0625 C16.59827148 15.18205078 16.59827148 15.18205078 16.63476562 16.32421875 C16.62456055 20.16813059 16.21430876 22.20870579 14.1875 25.5546875 C9.38159555 28.58193614 5.00377471 28.29128387 -0.5625 28.1875 C-1.60341797 28.20683594 -2.64433594 28.22617188 -3.71679688 28.24609375 C-11.1349396 28.19838865 -11.1349396 28.19838865 -14.68359375 25.58984375 C-16.47822213 21.46273101 -16.58630339 17.95541272 -16.5 13.5 C-16.51546875 12.69755859 -16.5309375 11.89511719 -16.546875 11.06835938 C-16.54171875 10.29169922 -16.5365625 9.51503906 -16.53125 8.71484375 C-16.52673828 8.01351318 -16.52222656 7.31218262 -16.51757812 6.58959961 C-14.47722696 -1.40145496 -6.55064087 -0.0656609 0 0 Z " fill="#15C9F2" transform="translate(300,218.4375)"/>
<path d="M0 0 C4.70588235 0.70588235 4.70588235 0.70588235 6 2 C6.09492722 4.34253782 6.12559791 6.65546104 6.11352539 8.99829102 C6.11367142 9.72995483 6.11381744 10.46161865 6.1139679 11.2154541 C6.11326867 13.64496784 6.10547585 16.07440583 6.09765625 18.50390625 C6.0957921 20.18399514 6.09436819 21.86408457 6.09336853 23.54417419 C6.08954307 27.97473643 6.07971256 32.4052661 6.06866455 36.83581543 C6.05845103 41.35342976 6.05387104 45.87104934 6.04882812 50.38867188 C6.03809031 59.25912893 6.02101356 68.12956176 6 77 C7.32 77 8.64 77 10 77 C10.33 78.32 10.66 79.64 11 81 C8.11584117 82.44207941 5.58278472 82.09394887 2.375 82.0625 C1.18648438 82.05347656 -0.00203125 82.04445313 -1.2265625 82.03515625 C-2.59941406 82.01775391 -2.59941406 82.01775391 -4 82 C-4.19142578 82.91458984 -4.19142578 82.91458984 -4.38671875 83.84765625 C-5.24423584 86.85715889 -6.97830267 88.63172598 -9 91 C-9.70125 91.886875 -10.4025 92.77375 -11.125 93.6875 C-13 96 -13 96 -15 98 C-16.20862644 86.83699192 -16.20862644 86.83699192 -13.4296875 82.61328125 C-9.37458062 78.93593148 -6.40729581 77.80855031 -1 77 C-1.00222061 76.05008682 -1.00444122 75.10017365 -1.00672913 74.12147522 C-1.02696127 65.18908904 -1.04197249 56.25670748 -1.05181217 47.32430363 C-1.05704082 42.7315736 -1.06413812 38.138862 -1.07543945 33.54614258 C-1.086269 29.11766312 -1.09227698 24.68920144 -1.09487724 20.26070976 C-1.09673137 18.56734372 -1.10035175 16.87397871 -1.10573006 15.18062019 C-1.1129414 12.81708768 -1.1139909 10.45362955 -1.11352539 8.09008789 C-1.11712067 7.38302704 -1.12071594 6.67596619 -1.12442017 5.94747925 C-1.11405216 1.11405216 -1.11405216 1.11405216 0 0 Z " fill="#1B5DD9" transform="translate(382,367)"/>
<path d="M0 0 C1.65 0 3.3 0 5 0 C5 25.74 5 51.48 5 78 C6.98 78.66 8.96 79.32 11 80 C11 80.99 11 81.98 11 83 C6.05 82.67 1.1 82.34 -4 82 C-4 82.66 -4 83.32 -4 84 C-4.99 84 -5.98 84 -7 84 C-7.2165625 85.175625 -7.2165625 85.175625 -7.4375 86.375 C-8 89 -8 89 -9 91 C-9.12327929 93.10148182 -9.17558006 95.20743907 -9.1875 97.3125 C-9.20167969 98.44300781 -9.21585938 99.57351563 -9.23046875 100.73828125 C-9.00480137 103.93204843 -8.36342654 106.1276429 -7 109 C-11 109 -11 109 -12.75 107.3125 C-14.18991433 104.64865849 -14.24862931 102.98355176 -14 100 C-14.66 100 -15.32 100 -16 100 C-16.62367661 89.29355149 -16.62367661 89.29355149 -14.3125 84.5 C-9.99627281 79.83380844 -7.32967626 77.8805748 -1 77 C-1.00222061 76.05008682 -1.00444122 75.10017365 -1.00672913 74.12147522 C-1.02696127 65.18908904 -1.04197249 56.25670748 -1.05181217 47.32430363 C-1.05704082 42.7315736 -1.06413812 38.138862 -1.07543945 33.54614258 C-1.086269 29.11766312 -1.09227698 24.68920144 -1.09487724 20.26070976 C-1.09673137 18.56734372 -1.10035175 16.87397871 -1.10573006 15.18062019 C-1.1129414 12.81708768 -1.1139909 10.45362955 -1.11352539 8.09008789 C-1.11712067 7.38302704 -1.12071594 6.67596619 -1.12442017 5.94747925 C-1.11405216 1.11405216 -1.11405216 1.11405216 0 0 Z " fill="#0A7EF2" transform="translate(213,367)"/>
<path d="M0 0 C13.7215223 9.92620762 21.67250273 28.49161955 24.67041016 44.72998047 C26.58684801 57.92926873 24.95196904 70.36781323 21 83 C20.01 83 19.02 83 18 83 C17.9175 83.825 17.835 84.65 17.75 85.5 C16.83552731 89.76753921 15.07776822 93.19236894 13 97 C12.01 96.67 11.02 96.34 10 96 C11.64839366 89.53322489 11.64839366 89.53322489 13.53515625 86.671875 C15.30106234 83.45086228 15.46416165 81.09022355 15.625 77.4375 C15.92358768 71.28801567 15.92358768 71.28801567 16.5078125 69.0859375 C20.56412314 51.8949067 14.63407183 33.69980666 6 19 C3.83321932 15.64616498 1.58281989 12.36502763 -0.75 9.125 C-1.86375 7.578125 -1.86375 7.578125 -3 6 C-2.01 4.02 -1.02 2.04 0 0 Z " fill="#0984F3" transform="translate(449,217)"/>
<path d="M0 0 C10.97267745 1.65956865 19.95164586 10.02585607 26.3125 18.625 C32.24740141 26.95018587 32.24740141 26.95018587 32.25878906 32.52148438 C32.26509338 33.40920532 32.27139771 34.29692627 32.27789307 35.21154785 C32.2738446 36.16267456 32.26979614 37.11380127 32.265625 38.09375 C32.26849518 39.56926331 32.26849518 39.56926331 32.27142334 41.07458496 C32.27278313 43.15242774 32.26910107 45.23027906 32.26074219 47.30810547 C32.25003988 50.48814989 32.26064457 53.66762939 32.2734375 56.84765625 C32.27211587 58.86718875 32.2695534 60.88672089 32.265625 62.90625 C32.26967346 63.85737671 32.27372192 64.80850342 32.27789307 65.78845215 C32.27158875 66.6761731 32.26528442 67.56389404 32.25878906 68.47851562 C32.25719788 69.25698853 32.25560669 70.03546143 32.25396729 70.83752441 C31.9632374 73.31302544 31.35878041 74.91372872 30 77 C27.4375 77.625 27.4375 77.625 25 78 C24.67 78.66 24.34 79.32 24 80 C22.35857037 81.0409066 20.69287785 82.04504326 19 83 C19.268125 82.505 19.53625 82.01 19.8125 81.5 C23.08680296 74.60673062 24.49423828 69.03668812 24.609375 61.453125 C24.62647522 60.56067078 24.64357544 59.66821655 24.66119385 58.74871826 C24.68937735 56.86969487 24.70907921 54.99052692 24.72070312 53.11132812 C24.74980093 50.26944276 24.84295271 47.43410819 24.9375 44.59375 C25.12027971 34.10050159 24.5671065 27.37723517 17.41845703 19.26245117 C10.42137732 12.7167276 2.81855823 8.6380744 -6 5 C-6 4.67 -6 4.34 -6 4 C0.625 3.875 0.625 3.875 4 5 C3.67 4.34 3.34 3.68 3 3 C2.01 2.67 1.02 2.34 0 2 C0 1.34 0 0.68 0 0 Z " fill="#19B5E7" transform="translate(320,199)"/>
<path d="M0 0 C6.08579119 5.37940472 8.92114124 13.61637733 9.9375 21.4375 C10.45481474 24.46982521 10.45481474 24.46982521 12 27 C15.53406513 28.86858616 19.0963236 29.88600258 22.94140625 30.875 C32.80750944 33.41566752 42.93017527 39.6733654 50 47 C51.07129071 49.72646023 51.20210661 50.51494414 50.0625 53.25 C49.5365625 54.11625 49.5365625 54.11625 49 55 C45.68597405 53.52375208 43.24329651 51.609235 40.5 49.25 C31.96899131 42.37296238 22.69163316 38.6131806 12.25537109 35.64770508 C7.19278981 34.19278981 7.19278981 34.19278981 5 32 C4.35638528 29.52208334 3.78605459 27.06332366 3.25 24.5625 C1.57831532 17.29075336 -1.09588945 11.3804321 -5 5 C-5.68106068 3.67396132 -6.35312063 2.34304479 -7 1 C-5.824375 1.309375 -5.824375 1.309375 -4.625 1.625 C-3.75875 1.74875 -2.8925 1.8725 -2 2 C-1.34 1.34 -0.68 0.68 0 0 Z " fill="#19BDED" transform="translate(398,168)"/>
<path d="M0 0 C3.44609879 1.70618981 6.0997169 3.8257177 8.4375 6.875 C9.67842166 11.56292627 9.55612822 15.45349737 7.3125 19.75 C4.95302504 23.06601886 3.7615233 24.54668418 0 26 C-4.82723092 26.53635899 -6.97890786 26.52017901 -11.3125 24.3125 C-14.55298267 21.52417771 -16.6454898 19.4224864 -17.28125 15.078125 C-17.48428792 10.57745105 -16.96636412 7.55963694 -14 4 C-9.67515082 0.27861815 -5.64569334 -1.27272856 0 0 Z " fill="#050A35" transform="translate(304,459)"/>
<path d="M0 0 C4.28712087 2.26965223 7.52115655 4.80503416 10 9 C10.71723929 13.94098176 10.54791491 16.71710788 7.75 20.875 C5.32365228 24.09515284 2.84812622 25.6807782 -1.1484375 26.37109375 C-5.28770068 26.49454546 -8.12211901 26.39741725 -11.4375 23.75 C-15.39450796 19.50345487 -16.48319031 16.998213 -16.31640625 11.02734375 C-15.62529227 6.5990949 -13.05734298 3.85730512 -9.6875 1.125 C-6.16108808 -0.35117243 -3.79611 -0.46618895 0 0 Z " fill="#050B35" transform="translate(261,411)"/>
<path d="M0 0 C3.43615111 2.12017834 5.80717883 4.09622164 7 8 C7.46225901 12.77667642 7.49973779 15.01903323 5.3125 19.3125 C2.52417771 22.55298267 0.4224864 24.6454898 -3.921875 25.28125 C-8.42254895 25.48428792 -11.44036306 24.96636412 -15 22 C-18.31139134 18.42718303 -19.33844059 15.7797853 -19.1875 11 C-18.62209231 7.01207131 -17.60200514 5.07640091 -14.5625 2.4375 C-9.52356823 -1.27595076 -6.07832412 -1.36709712 0 0 Z " fill="#050A36" transform="translate(348,412)"/>
<path d="M0 0 C3.95735792 2.09067966 6.62186902 4.22497259 9 8 C9.79893471 12.03462028 9.92775262 16.19603657 8.015625 19.9140625 C4.44602959 24.38707404 1.71765962 25.77473316 -3.8125 26.5 C-8.25359449 26.41683344 -10.50972825 24.47146357 -13.65234375 21.5078125 C-16.62613482 18.18061438 -16.38643711 14.83289558 -16.35546875 10.546875 C-15.77884373 6.41545178 -14.020496 4.80976372 -11 2 C-7.29211504 -0.47192331 -4.30054275 -0.66788732 0 0 Z " fill="#050934" transform="translate(388,450)"/>
<path d="M0 0 C3.26927653 2.11465109 6.24184404 4.48368807 8 8 C8.6198407 12.2918084 8.95106138 16.32059414 6.765625 20.1796875 C3.213124 24.41806741 0.89648421 25.77874351 -4.75 26.4375 C-9.25255056 26.41253207 -11.46750375 24.51128348 -14.65234375 21.5078125 C-17.62584507 18.18093855 -17.39101472 14.83316976 -17.34765625 10.546875 C-16.77336399 6.33970028 -15.15372024 4.80330688 -12 2 C-8.05110667 -0.2862014 -4.50140319 -0.6208832 0 0 Z " fill="#050A34" transform="translate(220,450)"/>
<path d="M0 0 C0.33 0.66 0.66 1.32 1 2 C0.01 3.485 0.01 3.485 -1 5 C-1.07905064 7.33199388 -1.08798769 9.66832622 -1 12 C-0.67 12 -0.34 12 0 12 C0 24.54 0 37.08 0 50 C0.99 50.33 1.98 50.66 3 51 C4.578125 53.0390625 4.578125 53.0390625 6.25 55.625 C9.63267918 60.63079064 13.45822759 66.2291138 19 69 C18 72 18 72 16.3125 72.875 C11.97072933 73.10969031 8.71919613 70.64471627 5.5859375 67.8359375 C4.85632813 67.02382813 4.12671875 66.21171875 3.375 65.375 C2.64023438 64.57835937 1.90546875 63.78171875 1.1484375 62.9609375 C-3.82922612 56.10081201 -5.61005319 49.80201396 -5.49609375 41.3984375 C-5.49754898 40.5177359 -5.49900421 39.6370343 -5.50050354 38.72964478 C-5.49885532 36.88255477 -5.48741609 35.03544947 -5.46655273 33.18847656 C-5.43750056 30.37505405 -5.44598612 27.5635095 -5.45898438 24.75 C-5.45274831 22.94530343 -5.44435839 21.14061274 -5.43359375 19.3359375 C-5.43652939 18.50347504 -5.43946503 17.67101257 -5.44248962 16.81332397 C-5.33506349 10.1117924 -3.75679409 5.63519113 0 0 Z " fill="#0DCAF9" transform="translate(253,219)"/>
<path d="M0 0 C0.495 1.485 0.495 1.485 1 3 C0.34 3.99 -0.32 4.98 -1 6 C0.98 4.68 2.96 3.36 5 2 C5.99 2.495 5.99 2.495 7 3 C-2.84980037 17.02850356 -2.84980037 17.02850356 -9.00488281 19.95239258 C-11.36732049 21.11596949 -13.12525037 22.1405731 -15 24 C-16.13135252 27.77254776 -16.07514771 31.39730419 -16 35.3125 C-16.01160156 36.33923828 -16.02320313 37.36597656 -16.03515625 38.42382812 C-16.0586671 40.951245 -16.04578854 43.473045 -16 46 C-16.33 46 -16.66 46 -17 46 C-17.08678303 42.04180389 -17.14031733 38.08385066 -17.1875 34.125 C-17.21263672 32.99707031 -17.23777344 31.86914062 -17.26367188 30.70703125 C-17.27333984 29.63066406 -17.28300781 28.55429687 -17.29296875 27.4453125 C-17.3086792 26.45031738 -17.32438965 25.45532227 -17.34057617 24.43017578 C-17.17199097 23.22723877 -17.17199097 23.22723877 -17 22 C-16.01 21.34 -15.02 20.68 -14 20 C-13.505 18.515 -13.505 18.515 -13 17 C-13.99 17 -14.98 17 -16 17 C-16 17.66 -16 18.32 -16 19 C-16.64815674 19.44069824 -17.29631348 19.88139648 -17.96411133 20.33544922 C-20.18263094 21.80902478 -20.18263094 21.80902478 -20.5300293 24.16064453 C-20.54461182 24.97645996 -20.55919434 25.79227539 -20.57421875 26.6328125 C-20.60193359 27.52097656 -20.62964844 28.40914063 -20.65820312 29.32421875 C-20.67270508 30.71060547 -20.67270508 30.71060547 -20.6875 32.125 C-20.72940098 33.96102497 -20.77478208 35.79697498 -20.82421875 37.6328125 C-20.83541748 38.44637207 -20.84661621 39.25993164 -20.8581543 40.09814453 C-21 42 -21 42 -22 43 C-24.31 43 -26.62 43 -29 43 C-29 50.26 -29 57.52 -29 65 C-27.02 65 -25.04 65 -23 65 C-20.4860397 68.77094045 -20.73973558 71.76679445 -20.8125 76.125 C-20.81314453 76.86621094 -20.81378906 77.60742188 -20.81445312 78.37109375 C-20.85960541 83.85960541 -20.85960541 83.85960541 -22 85 C-25.2098693 85.26998901 -28.41230859 85.44611437 -31.62890625 85.60546875 C-35.10944277 85.4970552 -35.10944277 85.4970552 -38 87 C-38.33 89.64 -38.66 92.28 -39 95 C-46.26 95 -53.52 95 -61 95 C-61 94.67 -61 94.34 -61 94 C-54.07 94 -47.14 94 -40 94 C-40 91.03 -40 88.06 -40 85 C-38 83 -38 83 -34.5234375 82.8046875 C-33.14047367 82.81612305 -31.75761943 82.84208742 -30.375 82.875 C-26.724375 82.936875 -26.724375 82.936875 -23 83 C-23 77.72 -23 72.44 -23 67 C-24.98 67 -26.96 67 -29 67 C-30.71567792 65.28432208 -30.13015825 63.02627265 -30.1328125 60.6875 C-30.13474609 59.07488281 -30.13474609 59.07488281 -30.13671875 57.4296875 C-30.13285156 56.29789062 -30.12898438 55.16609375 -30.125 54 C-30.13080078 52.30230469 -30.13080078 52.30230469 -30.13671875 50.5703125 C-30.13542969 49.49523437 -30.13414062 48.42015625 -30.1328125 47.3125 C-30.13168457 46.31863281 -30.13055664 45.32476562 -30.12939453 44.30078125 C-30 42 -30 42 -29 41 C-27.00041636 40.95919217 -24.99954746 40.95745644 -23 41 C-23.04713135 40.39526855 -23.0942627 39.79053711 -23.14282227 39.16748047 C-24.31561202 21.93687325 -24.31561202 21.93687325 -21.3125 17.515625 C-18.93957793 16.04902733 -16.5870075 15.03715127 -14 14 C-8.11713458 10.04967008 -3.7873187 5.98640697 0 0 Z " fill="#149AEB" transform="translate(342,274)"/>
<path d="M0 0 C0 0.33 0 0.66 0 1 C-0.84296631 1.02505615 -1.68593262 1.0501123 -2.55444336 1.07592773 C-5.67241674 1.17088155 -8.79021503 1.27012448 -11.90795898 1.37231445 C-13.25914147 1.41571223 -14.61038053 1.4573837 -15.96166992 1.49731445 C-17.90036701 1.55489952 -19.83886276 1.61914298 -21.77734375 1.68359375 C-22.94515381 1.72025146 -24.11296387 1.75690918 -25.31616211 1.79467773 C-27.91779795 1.70076188 -27.91779795 1.70076188 -29 3 C-30.99958364 3.04080783 -33.00045254 3.04254356 -35 3 C-35 3.66 -35 4.32 -35 5 C-35.66 5.33 -36.32 5.66 -37 6 C-37 6.66 -37 7.32 -37 8 C-35.96617187 7.51144531 -34.93234375 7.02289063 -33.8671875 6.51953125 C-27.76717792 4.23572422 -21.55391352 4.60200913 -15.125 4.6875 C-13.27261719 4.68266602 -13.27261719 4.68266602 -11.3828125 4.67773438 C-2.26729264 4.73270736 -2.26729264 4.73270736 0 7 C-0.65371582 6.97905273 -1.30743164 6.95810547 -1.98095703 6.93652344 C-22.61798283 6.36317192 -41.13341702 8.04007891 -57 23 C-57.66 21.68 -58.32 20.36 -59 19 C-61.64 21.31 -64.28 23.62 -67 26 C-67.66 25.67 -68.32 25.34 -69 25 C-58.96325394 12.02997957 -43.34939395 1.79348329 -26.90625 -0.796875 C-8.27789204 -2.09885701 -8.27789204 -2.09885701 0 0 Z " fill="#1FE8F2" transform="translate(274,138)"/>
<path d="M0 0 C6.75 -0.125 6.75 -0.125 9 1 C15.55880544 1.98639877 22.18369939 2.17330389 28.8046875 2.28125 C30.62239602 2.31900147 32.44010435 2.35676215 34.2578125 2.39453125 C37.0820099 2.44833019 39.90623173 2.50057144 42.73046875 2.55224609 C45.48446387 2.60400221 48.2383087 2.66118267 50.9921875 2.71875 C51.83699677 2.73232544 52.68180603 2.74590088 53.55221558 2.7598877 C54.73462326 2.78496399 54.73462326 2.78496399 55.94091797 2.81054688 C56.63023407 2.82307495 57.31955017 2.83560303 58.02975464 2.84851074 C60.11160958 3.0085815 61.9921489 3.43872942 64 4 C64 5.32 64 6.64 64 8 C57.47130695 8.05097336 50.94266579 8.0858478 44.41381836 8.10986328 C42.19569989 8.11988174 39.9775945 8.13350026 37.75952148 8.15087891 C34.55970011 8.17531051 31.36005433 8.18652496 28.16015625 8.1953125 C27.17854019 8.20563507 26.19692413 8.21595764 25.18556213 8.22659302 C19.18886569 8.22755641 13.78327165 7.58420435 8 6 C7.30661026 5.81059845 6.61322052 5.6211969 5.89881897 5.42605591 C4.26149556 4.96603041 2.62994652 4.48551598 1 4 C0.67 2.68 0.34 1.36 0 0 Z " fill="#07A5FA" transform="translate(181,347)"/>
<path d="M0 0 C1.32 0 2.64 0 4 0 C4 24.09 4 48.18 4 73 C3.67 73 3.34 73 3 73 C2.96241577 71.82642944 2.96241577 71.82642944 2.92407227 70.62915039 C2.80850212 67.10675051 2.68560051 63.5846444 2.5625 60.0625 C2.52318359 58.83080078 2.48386719 57.59910156 2.44335938 56.33007812 C2.40146484 55.16025391 2.35957031 53.99042969 2.31640625 52.78515625 C2.27974854 51.70113525 2.24309082 50.61711426 2.20532227 49.50024414 C2.27635735 47.060737 2.27635735 47.060737 1 46 C0.67 47.98 0.34 49.96 0 52 C-0.33 52 -0.66 52 -1 52 C-1.02526739 44.75513449 -1.0428318 37.51028026 -1.05493164 30.26538086 C-1.05997356 27.79857967 -1.06680691 25.33178148 -1.07543945 22.86499023 C-1.08751125 19.32795471 -1.09322956 15.79095855 -1.09765625 12.25390625 C-1.10281754 11.14350479 -1.10797882 10.03310333 -1.11329651 8.88905334 C-1.11337204 7.86807053 -1.11344757 6.84708771 -1.11352539 5.79516602 C-1.115746 4.89137711 -1.11796661 3.9875882 -1.12025452 3.05641174 C-1 1 -1 1 0 0 Z " fill="#146AEC" transform="translate(383,368)"/>
<path d="M0 0 C0.99 0.33 1.98 0.66 3 1 C3 17.17 3 33.34 3 50 C1.515 50.495 1.515 50.495 0 51 C-0.33 54.63 -0.66 58.26 -1 62 C-1.33 62 -1.66 62 -2 62 C-2 41.87 -2 21.74 -2 1 C-1.34 0.67 -0.68 0.34 0 0 Z " fill="#0E70F1" transform="translate(299,390)"/>
<path d="M0 0 C5.94 0 11.88 0 18 0 C18 4.29 18 8.58 18 13 C12.06 13 6.12 13 0 13 C0 8.71 0 4.42 0 0 Z " fill="#08082C" transform="translate(700,700)"/>
<path d="M0 0 C0.33 0 0.66 0 1 0 C1 25.08 1 50.16 1 76 C2.98 76.33 4.96 76.66 7 77 C9.265625 78.48828125 9.265625 78.48828125 11.25 80.3125 C11.91515625 80.90675781 12.5803125 81.50101562 13.265625 82.11328125 C17.07727209 86.25973518 17.27334214 89.53455716 17.25 95.125 C17.25515625 96.36507812 17.2603125 97.60515625 17.265625 98.8828125 C17 102 17 102 15 104 C14.67 98.72 14.34 93.44 14 88 C13.01 88.495 13.01 88.495 12 89 C11.53248212 91.35599235 11.53248212 91.35599235 11.375 94.0625 C11.30023438 94.98160156 11.22546875 95.90070313 11.1484375 96.84765625 C11.09945312 97.55792969 11.05046875 98.26820313 11 99 C10.67 99 10.34 99 10 99 C9.97421875 98.40832031 9.9484375 97.81664062 9.921875 97.20703125 C9.54382111 91.94005325 8.94213306 88.82618797 5 85 C1.24171538 82.49447692 -0.53651494 82.62804291 -5 83 C-7.46446682 83.82786944 -9.65572814 84.85178521 -12 86 C-12 85.01 -12 84.02 -12 83 C-11.01 83 -10.02 83 -9 83 C-9 82.34 -9 81.68 -9 81 C-6.87506859 80.97306425 -4.75004088 80.95363372 -2.625 80.9375 C-1.44164062 80.92589844 -0.25828125 80.91429687 0.9609375 80.90234375 C4 81 4 81 6 82 C5.67 81.01 5.34 80.02 5 79 C3.35 78.34 1.7 77.68 0 77 C0 51.59 0 26.18 0 0 Z " fill="#1A69D1" transform="translate(218,368)"/>
<path d="M0 0 C0.99 0.33 1.98 0.66 3 1 C4.27379861 5.8972307 4.14407885 10.73239424 4.1328125 15.75390625 C4.13376923 16.69177475 4.13472595 17.62964325 4.13571167 18.59593201 C4.13639065 20.5736396 4.13455603 22.55134945 4.13037109 24.52905273 C4.12501288 27.55522664 4.13032872 30.58125253 4.13671875 33.60742188 C4.13605804 35.53125033 4.13477701 37.45507869 4.1328125 39.37890625 C4.13483673 40.28314835 4.13686096 41.18739044 4.13894653 42.11903381 C4.13579437 42.96348557 4.13264221 43.80793732 4.12939453 44.67797852 C4.12820114 45.78786888 4.12820114 45.78786888 4.12698364 46.92018127 C3.99655591 49.05640949 3.58428963 50.94527169 3 53 C2.360625 53.12375 1.72125 53.2475 1.0625 53.375 C0.381875 53.58125 -0.29875 53.7875 -1 54 C-1.33 54.66 -1.66 55.32 -2 56 C-3.64142963 57.0409066 -5.30712215 58.04504326 -7 59 C-6.731875 58.505 -6.46375 58.01 -6.1875 57.5 C-4.56124507 54.0763054 -3.30484829 50.55867715 -2 47 C-1.34 47 -0.68 47 0 47 C0.0247279 41.23421542 0.04287328 35.46846175 0.05493164 29.70263672 C0.05995887 27.74136823 0.06678157 25.78010348 0.07543945 23.81884766 C0.08757545 20.99901403 0.09324444 18.17922998 0.09765625 15.359375 C0.10281754 14.48319519 0.10797882 13.60701538 0.11329651 12.70428467 C0.11340981 11.47346161 0.11340981 11.47346161 0.11352539 10.21777344 C0.115746 9.49829529 0.11796661 8.77881714 0.12025452 8.03753662 C0.06581901 5.96050104 0.06581901 5.96050104 -0.56959534 3.86138916 C-1 2 -1 2 0 0 Z " fill="#08B1FA" transform="translate(346,223)"/>
<path d="M0 0 C9.30173673 2.78642334 16.89228422 8.52408118 24 15 C23.42415568 17.38564077 22.77772405 19.66682784 22 22 C18.68597405 20.52375208 16.24329651 18.609235 13.5 16.25 C4.68591311 9.11601765 -5.22758845 5.24700348 -16 2 C-12.37921732 0.70747474 -10.0607165 1.32835209 -6.4375 2.4375 C-3.41393311 3.35236488 -1.17025502 4 2 4 C2 3.34 2 2.68 2 2 C1.34 2 0.68 2 0 2 C0 1.34 0 0.68 0 0 Z " fill="#13A4EB" transform="translate(425,201)"/>
<path d="M0 0 C8.52735445 4.26367722 16.64671384 11.0623688 22 19 C21.8125 21.375 21.8125 21.375 21 23 C17 23 17 23 14 22 C12.59765625 20.46875 12.59765625 20.46875 11.0625 18.5 C6.44959312 13.01223147 0.8177536 9.1268794 -5 5 C-3 4 -3 4 0 4 C0 2.68 0 1.36 0 0 Z " fill="#17D3F1" transform="translate(376,147)"/>
<path d="M0 0 C1.96936523 -0.00386719 1.96936523 -0.00386719 3.97851562 -0.0078125 C4.98918091 -0.00152832 4.98918091 -0.00152832 6.02026367 0.00488281 C8.08737151 0.01565282 10.15362089 0.00492157 12.22070312 -0.0078125 C14.18426758 -0.00394531 14.18426758 -0.00394531 16.1875 0 C17.37883545 0.00225586 18.5701709 0.00451172 19.79760742 0.00683594 C22.743529 0.25300676 24.41407471 0.72257034 26.89453125 2.265625 C26.89453125 3.585625 26.89453125 4.905625 26.89453125 6.265625 C21.14453125 6.390625 21.14453125 6.390625 18.89453125 5.265625 C14.44098255 5.02076624 9.97904873 5.08041899 5.51953125 5.078125 C3.65167969 5.05975586 3.65167969 5.05975586 1.74609375 5.04101562 C0.54984375 5.03908203 -0.64640625 5.03714844 -1.87890625 5.03515625 C-2.97638184 5.03104736 -4.07385742 5.02693848 -5.20458984 5.02270508 C-8.10964949 5.2659751 -9.58063526 5.92834439 -12.10546875 7.265625 C-13.42546875 7.265625 -14.74546875 7.265625 -16.10546875 7.265625 C-16.43546875 6.275625 -16.76546875 5.285625 -17.10546875 4.265625 C-16.11546875 4.265625 -15.12546875 4.265625 -14.10546875 4.265625 C-14.10546875 3.605625 -14.10546875 2.945625 -14.10546875 2.265625 C-9.24583332 0.7017829 -5.15402554 0.00973179 0 0 Z " fill="#0EF5FC" transform="translate(253.10546875,138.734375)"/>
<path d="M0 0 C0.33 0 0.66 0 1 0 C1.19588601 3.6454342 1.38030536 7.2913579 1.5625 10.9375 C1.64661133 12.49887695 1.64661133 12.49887695 1.73242188 14.09179688 C1.78076172 15.08115234 1.82910156 16.07050781 1.87890625 17.08984375 C1.9260376 18.00628662 1.97316895 18.92272949 2.02172852 19.86694336 C2 22 2 22 1 23 C-1.31 23 -3.62 23 -6 23 C-6 30.26 -6 37.52 -6 45 C-4.02 45 -2.04 45 0 45 C2.5139603 48.77094045 2.26026442 51.76679445 2.1875 56.125 C2.18685547 56.86621094 2.18621094 57.60742188 2.18554688 58.37109375 C2.14039459 63.85960541 2.14039459 63.85960541 1 65 C-2.2098693 65.26998901 -5.41230859 65.44611437 -8.62890625 65.60546875 C-12.10944277 65.4970552 -12.10944277 65.4970552 -15 67 C-15.33 69.64 -15.66 72.28 -16 75 C-23.26 75 -30.52 75 -38 75 C-38 74.67 -38 74.34 -38 74 C-31.07 74 -24.14 74 -17 74 C-17 71.03 -17 68.06 -17 65 C-15 63 -15 63 -11.5234375 62.8046875 C-10.14047367 62.81612305 -8.75761943 62.84208742 -7.375 62.875 C-3.724375 62.936875 -3.724375 62.936875 0 63 C0 57.72 0 52.44 0 47 C-1.98 47 -3.96 47 -6 47 C-7.71567792 45.28432208 -7.13015825 43.02627265 -7.1328125 40.6875 C-7.13474609 39.07488281 -7.13474609 39.07488281 -7.13671875 37.4296875 C-7.13285156 36.29789062 -7.12898438 35.16609375 -7.125 34 C-7.13080078 32.30230469 -7.13080078 32.30230469 -7.13671875 30.5703125 C-7.13542969 29.49523437 -7.13414062 28.42015625 -7.1328125 27.3125 C-7.13168457 26.31863281 -7.13055664 25.32476562 -7.12939453 24.30078125 C-7 22 -7 22 -6 21 C-4.02 21 -2.04 21 0 21 C0 14.07 0 7.14 0 0 Z " fill="#1468C8" transform="translate(319,294)"/>
<path d="M0 0 C1.29421875 -0.01611328 2.5884375 -0.03222656 3.921875 -0.04882812 C11.24579608 -0.05255721 17.09294817 0.50024875 23.875 3.3125 C23.545 4.3025 23.215 5.2925 22.875 6.3125 C21.6375 6.15007812 20.4 5.98765625 19.125 5.8203125 C13.37124849 5.18325785 7.65837524 5.16575799 1.875 5.1875 C0.84632813 5.18363281 -0.18234375 5.17976562 -1.2421875 5.17578125 C-7.28556639 5.18347003 -13.13255362 5.52599141 -19.125 6.3125 C-15.54611209 -1.9464721 -7.78219041 -0.01903667 0 0 Z " fill="#0CF1FB" transform="translate(338.125,138.6875)"/>
<path d="M0 0 C1.313702 0.6433848 2.62592898 1.28978215 3.9375 1.9375 C4.66839844 2.29714844 5.39929688 2.65679687 6.15234375 3.02734375 C8 4 8 4 9 5 C9.09443335 7.30053835 9.11742128 9.60402173 9.11352539 11.90649414 C9.11367142 12.62840439 9.11381744 13.35031464 9.1139679 14.09410095 C9.11326869 16.49114947 9.10547595 18.88812123 9.09765625 21.28515625 C9.0957921 22.94282489 9.09436818 24.60049407 9.09336853 26.25816345 C9.08954312 30.62954214 9.07971265 35.00088781 9.06866455 39.37225342 C9.05845092 43.82954461 9.05387101 48.28684111 9.04882812 52.74414062 C9.0380904 61.49610893 9.02101371 70.24805036 9 79 C8.34 79 7.68 79 7 79 C7.00079559 78.09433289 7.00159119 77.18866577 7.00241089 76.2555542 C7.00461851 67.7211468 6.97823705 59.18741011 6.9197216 50.65319443 C6.89064643 46.26555955 6.87263643 41.87845982 6.87988281 37.49072266 C6.88646937 33.25632124 6.86403107 29.02297792 6.82144547 24.78879547 C6.81030196 23.17330949 6.80962542 21.55771636 6.81957626 19.9422226 C6.83173179 17.67873218 6.80670933 15.41848013 6.77294922 13.15527344 C6.768508 11.86731873 6.76406677 10.57936401 6.75949097 9.25238037 C6.29756056 5.71537578 6.29756056 5.71537578 2.95169067 3.67779541 C1.97763275 3.12412292 1.00357483 2.57045044 0 2 C0 1.34 0 0.68 0 0 Z " fill="#1D79C7" transform="translate(272,289)"/>
<path d="M0 0 C0.99 0 1.98 0 3 0 C4.49941436 2.99882872 4.10098728 6.06655181 4.0625 9.3515625 C4.05871338 10.08442474 4.05492676 10.81728699 4.05102539 11.57235718 C4.03470557 14.70830148 4.00680016 17.84411551 3.97949219 20.97998047 C3.96124102 23.27050151 3.94924311 25.56100024 3.9375 27.8515625 C3.92920166 28.5477066 3.92090332 29.24385071 3.91235352 29.96109009 C3.88892286 34.73944432 4.32936617 39.28114052 5 44 C3.68 43.67 2.36 43.34 1 43 C1 40.36 1 37.72 1 35 C0.34 35 -0.32 35 -1 35 C-1.0247636 30.65836985 -1.04289015 26.3167774 -1.05493164 21.97509766 C-1.05995288 20.49885339 -1.06677116 19.02261408 -1.07543945 17.54638672 C-1.08760189 15.42153702 -1.09325046 13.29675322 -1.09765625 11.171875 C-1.10289307 9.8940918 -1.10812988 8.61630859 -1.11352539 7.29980469 C-1.02194632 4.6379064 -0.80108514 2.51690418 0 0 Z " fill="#0EEAFC" transform="translate(130,256)"/>
<path d="M0 0 C5.04267334 0.45023869 9.15308229 1.3193658 13.83656311 3.20010376 C21.1449806 5.90227441 28.43432644 6.32314847 36.16015625 6.4140625 C37.19063583 6.43342865 38.22111542 6.4527948 39.28282166 6.4727478 C42.54263281 6.53206126 45.80248022 6.57873466 49.0625 6.625 C51.28582186 6.66322423 53.50912962 6.70227848 55.73242188 6.7421875 C61.1548218 6.83772253 66.57730816 6.92290808 72 7 C72 5.68 72 4.36 72 3 C57.15 2.67 42.3 2.34 27 2 C27 1.67 27 1.34 27 1 C33.51445205 0.9494061 40.02885368 0.91431144 46.54345703 0.89013672 C48.76092421 0.88006175 50.97837805 0.86640141 53.19580078 0.84912109 C56.37796312 0.82493837 59.55995024 0.81353203 62.7421875 0.8046875 C64.23599442 0.78920364 64.23599442 0.78920364 65.75997925 0.77340698 C67.14118454 0.77318039 67.14118454 0.77318039 68.55029297 0.77294922 C69.3630368 0.768508 70.17578064 0.76406677 71.01315308 0.75949097 C73 1 73 1 75 3 C74.46428571 6.53571429 74.46428571 6.53571429 73 8 C71.52005587 8.11398731 70.03476202 8.15956147 68.55053711 8.17700195 C67.60121811 8.18983719 66.65189911 8.20267242 65.67381287 8.21589661 C64.11631065 8.22697701 64.11631065 8.22697701 62.52734375 8.23828125 C61.45690323 8.246353 60.38646271 8.25442474 59.28358459 8.26274109 C57.00279369 8.27661573 54.72198173 8.28732265 52.44116211 8.29516602 C49.00396907 8.31217115 45.56779114 8.35599992 42.13085938 8.40039062 C26.86402562 8.50921805 14.06213272 7.24201888 0 1 C0 0.67 0 0.34 0 0 Z " fill="#268DD3" transform="translate(173,348)"/>
<path d="M0 0 C3.17032634 1.41217209 5.40874862 3.13649376 7.9375 5.5 C10.81593306 8.08789963 13.20480963 9.93260271 17 11 C16.67 9.35 16.34 7.7 16 6 C19.2779375 7.25366733 22.30429984 8.68342132 25.375 10.375 C31.91996165 13.71689708 38.89222581 15.30361123 46 17 C46 17.33 46 17.66 46 18 C40.25 18.125 40.25 18.125 38 17 C36.00039988 16.960008 33.99952758 16.95653201 32 17 C31.67 17.66 31.34 18.32 31 19 C18.54317723 16.87968974 9.05544671 10.6438355 0 2 C0 1.34 0 0.68 0 0 Z " fill="#19A7E8" transform="translate(150,331)"/>
<path d="M0 0 C0.99 0.33 1.98 0.66 3 1 C3.00808685 1.7722995 3.01617371 2.544599 3.02450562 3.34030151 C3.10236547 10.60960497 3.18962952 17.87870519 3.28752708 25.14776421 C3.3375267 28.88509262 3.38385611 32.62239226 3.421875 36.35986328 C3.45868195 39.96504325 3.50502877 43.56998459 3.55806351 47.17496109 C3.57663202 48.55206248 3.59173088 49.92921506 3.60334396 51.30639267 C3.62016374 53.23154401 3.65033482 55.15656483 3.68115234 57.08154297 C3.69447601 58.17852509 3.70779968 59.2755072 3.7215271 60.4057312 C3.74281843 63.1612181 3.74281843 63.1612181 6 65 C4.35 64.67 2.7 64.34 1 64 C0.67 42.88 0.34 21.76 0 0 Z " fill="#00175A" transform="translate(302,388)"/>
<path d="M0 0 C0.33 0.66 0.66 1.32 1 2 C0.01 3.485 0.01 3.485 -1 5 C-2.58065298 16.16201478 -2.1225062 27.69143207 -2.0625 38.9375 C-2.05746771 40.60351426 -2.0529079 42.26953001 -2.04882812 43.93554688 C-2.03797619 47.95706926 -2.02081016 51.97851733 -2 56 C-5.93706742 52.06293258 -5.17730231 47.2060654 -5.203125 41.984375 C-5.20882507 41.09518372 -5.21452515 40.20599243 -5.22039795 39.28985596 C-5.22984443 37.40695382 -5.23638054 35.52403517 -5.24023438 33.64111328 C-5.24991634 30.77476731 -5.28093309 27.90914574 -5.3125 25.04296875 C-5.31903279 23.21094174 -5.32428218 21.37890962 -5.328125 19.546875 C-5.3404718 18.69559021 -5.3528186 17.84430542 -5.36553955 16.96722412 C-5.34033277 10.15851791 -3.81686095 5.72529142 0 0 Z " fill="#1DBCDC" transform="translate(253,219)"/>
<path d="M0 0 C1.22244667 0.00333092 1.22244667 0.00333092 2.46958923 0.00672913 C3.39046829 0.00680466 4.31134735 0.00688019 5.26013184 0.00695801 C6.2611644 0.01211929 7.26219696 0.01728058 8.29356384 0.02259827 C9.31316696 0.02401321 10.33277008 0.02542816 11.38327026 0.02688599 C14.65417867 0.03250355 17.92501972 0.04505902 21.19590759 0.05775452 C23.40749515 0.06276725 25.61908377 0.06733055 27.83067322 0.07142639 C33.26494116 0.08247868 38.69916957 0.09923389 44.13340759 0.12025452 C44.13340759 0.45025452 44.13340759 0.78025452 44.13340759 1.12025452 C29.28340759 1.45025452 14.43340759 1.78025452 -0.86659241 2.12025452 C-0.86659241 3.44025452 -0.86659241 4.76025452 -0.86659241 6.12025452 C14.64340759 6.12025452 30.15340759 6.12025452 46.13340759 6.12025452 C46.13340759 6.45025452 46.13340759 6.78025452 46.13340759 7.12025452 C39.31578865 7.14552342 32.4981817 7.16308696 25.68052673 7.17518616 C23.35923308 7.18022785 21.03794262 7.18706103 18.71665955 7.19569397 C15.38811965 7.20776676 12.05962157 7.2134843 8.73106384 7.21791077 C7.16389366 7.22565269 7.16389366 7.22565269 5.56506348 7.23355103 C4.60414291 7.23362656 3.64322235 7.23370209 2.65318298 7.23377991 C1.80268875 7.23600052 0.95219452 7.23822113 0.07592773 7.24050903 C-1.86659241 7.12025452 -1.86659241 7.12025452 -2.86659241 6.12025452 C-2.99159241 3.62025452 -2.99159241 3.62025452 -2.86659241 1.12025452 C-1.86659241 0.12025452 -1.86659241 0.12025452 0 0 Z " fill="#1E69CC" transform="translate(355.86659240722656,348.87974548339844)"/>
<path d="M0 0 C1.59341355 14.31918936 1.59341355 14.31918936 -1 20 C-3.125 21.9375 -3.125 21.9375 -5 23 C-5.33 21.35 -5.66 19.7 -6 18 C-6.99 17.67 -7.98 17.34 -9 17 C-8.360625 16.401875 -7.72125 15.80375 -7.0625 15.1875 C-4.12860483 10.65329837 -4.18569688 6.30164592 -4 1 C-1 0 -1 0 0 0 Z " fill="#136BE7" transform="translate(233,455)"/>
<path d="M0 0 C0.66 0.33 1.32 0.66 2 1 C1.86287598 1.5347998 1.72575195 2.06959961 1.58447266 2.62060547 C-0.28417972 10.74598109 -0.44220842 18.83464036 -0.625 27.125 C-0.66327434 28.57293772 -0.70233118 30.02085497 -0.7421875 31.46875 C-0.83713614 34.97897702 -0.92153215 38.48936132 -1 42 C-0.34 42 0.32 42 1 42 C1 44.64 1 47.28 1 50 C1.66 50 2.32 50 3 50 C3 51.98 3 53.96 3 56 C-4.17087262 48.82912738 -3.40046635 34.63923252 -3.4375 25.3125 C-3.4473291 24.18529541 -3.4571582 23.05809082 -3.46728516 21.89672852 C-3.39002389 14.22378942 -2.18375588 7.34989837 0 0 Z " fill="#28D9EC" transform="translate(130,249)"/>
<path d="M0 0 C0.66 0.33 1.32 0.66 2 1 C2.05783842 5.29161047 2.0935412 9.58312145 2.125 13.875 C2.14175781 15.09832031 2.15851563 16.32164062 2.17578125 17.58203125 C2.18544922 19.33193359 2.18544922 19.33193359 2.1953125 21.1171875 C2.21102295 22.73536377 2.21102295 22.73536377 2.22705078 24.38623047 C2 27 2 27 0 29 C-2.58064129 29.14497985 -5.04943884 29.18677545 -7.625 29.125 C-8.68460937 29.11146484 -8.68460937 29.11146484 -9.765625 29.09765625 C-11.51056098 29.07407603 -13.25532295 29.03820461 -15 29 C-14.97679687 29.62648438 -14.95359375 30.25296875 -14.9296875 30.8984375 C-14.91164063 31.71570313 -14.89359375 32.53296875 -14.875 33.375 C-14.85179687 34.18710937 -14.82859375 34.99921875 -14.8046875 35.8359375 C-15 38 -15 38 -17 40 C-20.07275391 40.22705078 -20.07275391 40.22705078 -23.9765625 40.1953125 C-24.66181 40.1924826 -25.3470575 40.18965271 -26.05307007 40.18673706 C-28.24389027 40.17553281 -30.43430316 40.15042859 -32.625 40.125 C-34.1093691 40.11497048 -35.5937446 40.10584458 -37.078125 40.09765625 C-40.71888261 40.07559294 -44.35940156 40.04106176 -48 40 C-48.33 39.34 -48.66 38.68 -49 38 C-38.44 38 -27.88 38 -17 38 C-17 35.03 -17 32.06 -17 29 C-15.08817842 27.08817842 -11.68058246 27.64633192 -9.125 27.5 C-3.97268808 27.22167685 -3.97268808 27.22167685 1 26 C0.505 13.13 0.505 13.13 0 0 Z " fill="#1A76DF" transform="translate(324,335)"/>
<path d="M0 0 C8.1648334 16.3296668 6.28661043 35.10172738 1 52 C0.67 52 0.34 52 0 52 C-0.04241723 49.66705225 -0.04092937 47.33297433 0 45 C0.495 44.505 0.495 44.505 1 44 C2.68161809 32.47780197 2.10157934 20.60661148 2 9 C1.34 9 0.68 9 0 9 C0 6.03 0 3.06 0 0 Z " fill="#1369D0" transform="translate(469,248)"/>
<path d="M0 0 C0.763125 0.309375 1.52625 0.61875 2.3125 0.9375 C4.18789677 1.67893593 6.08684652 2.36228217 8 3 C8 3.66 8 4.32 8 5 C9.32 5.33 10.64 5.66 12 6 C12 31.41 12 56.82 12 83 C11.67 83 11.34 83 11 83 C11.00967804 82.07593857 11.01935608 81.15187714 11.02932739 80.19981384 C11.11181573 71.4749805 11.1461675 62.75155361 11.12697029 54.02632809 C11.11878518 49.54076255 11.12896028 45.05682961 11.18164062 40.5715332 C11.23183615 36.23951623 11.23308926 31.90995228 11.20095444 27.57779121 C11.19721412 25.92840846 11.21086677 24.2788883 11.24249649 22.62980461 C11.68613965 13.35966162 11.68613965 13.35966162 7.69378662 5.42312622 C5.19578719 3.68283144 2.73937572 2.31268166 0 1 C0 0.67 0 0.34 0 0 Z " fill="#219CE9" transform="translate(263,290)"/>
<path d="M0 0 C0 0.33 0 0.66 0 1 C-0.84296631 1.02505615 -1.68593262 1.0501123 -2.55444336 1.07592773 C-5.67241674 1.17088155 -8.79021503 1.27012448 -11.90795898 1.37231445 C-13.25914147 1.41571223 -14.61038053 1.4573837 -15.96166992 1.49731445 C-17.90036701 1.55489952 -19.83886276 1.61914298 -21.77734375 1.68359375 C-22.94515381 1.72025146 -24.11296387 1.75690918 -25.31616211 1.79467773 C-27.91779795 1.70076188 -27.91779795 1.70076188 -29 3 C-30.99958364 3.04080783 -33.00045254 3.04254356 -35 3 C-35 3.66 -35 4.32 -35 5 C-35.804375 5.2475 -36.60875 5.495 -37.4375 5.75 C-41.02298954 7.00806651 -44.40938108 8.49734384 -47.8515625 10.09765625 C-49.89083185 10.95414938 -51.84325693 11.52668761 -54 12 C-50.71137413 8.17170219 -46.94056156 6.304148 -42.375 4.375 C-41.65352783 4.06941162 -40.93205566 3.76382324 -40.1887207 3.44897461 C-27.98013368 -1.58807727 -12.99169294 -3.29403979 0 0 Z " fill="#2FD7E6" transform="translate(274,138)"/>
<path d="M0 0 C0.93065133 2.60582371 1.14917407 3.64198224 0.0625 6.25 C-0.4634375 7.11625 -0.4634375 7.11625 -1 8 C0.32 8.33 1.64 8.66 3 9 C-1.82338313 14.39083997 -5.76263973 16.02361073 -12.875 16.4375 C-18.31873401 16.36326726 -21.78987667 14.29283389 -26 11 C-25.34 10.67 -24.68 10.34 -24 10 C-22.265625 10.77734375 -22.265625 10.77734375 -20.25 11.9375 C-16.66972416 13.83870487 -14.11059556 14.41105956 -10 14 C-9.773125 13.2575 -9.54625 12.515 -9.3125 11.75 C-7.74076853 8.45684836 -5.85106111 7.22521843 -3 5 C-1.21037181 2.38142305 -1.21037181 2.38142305 0 0 Z " fill="#156ADB" transform="translate(270,428)"/>
<path d="M0 0 C5.94 0 11.88 0 18 0 C18 4.29 18 8.58 18 13 C12.06 13 6.12 13 0 13 C0 8.71 0 4.42 0 0 Z M2 1 C2 4.3 2 7.6 2 11 C6.62 11 11.24 11 16 11 C16 7.7 16 4.4 16 1 C11.38 1 6.76 1 2 1 Z " fill="#00264B" transform="translate(291,226)"/>
<path d="M0 0 C0.33 0.66 0.66 1.32 1 2 C1.66 2 2.32 2 3 2 C4.60725635 5.21451269 4.05748185 8.43612536 4 12 C5.32 12.33 6.64 12.66 8 13 C8 13.99 8 14.98 8 16 C5.69 16 3.38 16 1 16 C-2.16727335 10.8531808 -2.35050464 6.841744 -2 1 C-1.34 0.67 -0.68 0.34 0 0 Z " fill="#0DBFF7" transform="translate(405,185)"/>
<path d="M0 0 C1.32 0 2.64 0 4 0 C4 6.93 4 13.86 4 21 C3.67 21 3.34 21 3 21 C2.67 15.06 2.34 9.12 2 3 C1.34 14.55 0.68 26.1 0 38 C-0.33 38 -0.66 38 -1 38 C-1.02464928 32.74894558 -1.04283568 27.49792455 -1.05493164 22.24682617 C-1.05997218 20.45905979 -1.06680454 18.67129755 -1.07543945 16.88354492 C-1.0875173 14.31948832 -1.09323094 11.75548603 -1.09765625 9.19140625 C-1.10281754 8.3872377 -1.10797882 7.58306915 -1.11329651 6.75453186 C-1.11349215 4.83598285 -1.06201983 2.91754632 -1 1 C-0.67 0.67 -0.34 0.34 0 0 Z " fill="#1082F1" transform="translate(256,367)"/>
<path d="M0 0 C0.99 0.33 1.98 0.66 3 1 C2.67 12.88 2.34 24.76 2 37 C-0.31 37.99 -2.62 38.98 -5 40 C-5 39.34 -5 38.68 -5 38 C-3.35 37.34 -1.7 36.68 0 36 C0 24.12 0 12.24 0 0 Z " fill="#001655" transform="translate(337,367)"/>
<path d="M0 0 C0.33 0 0.66 0 1 0 C1.02578125 0.94617188 1.0515625 1.89234375 1.078125 2.8671875 C1.42038075 11.5863478 2.57264769 19.69730255 4.80371094 28.14599609 C5.2911229 30.0770964 5.65530847 32.03839184 6 34 C5.34 34.99 4.68 35.98 4 37 C3.34 36.67 2.68 36.34 2 36 C2.66 37.98 3.32 39.96 4 42 C3.34 42 2.68 42 2 42 C-0.60018816 38.09971775 -0.15085514 34.52565431 0 30 C0.66 30 1.32 30 2 30 C1.67257813 28.9171875 1.34515625 27.834375 1.0078125 26.71875 C-0.3422828 21.31836881 -0.21942455 16.03473153 -0.125 10.5 C-0.11597656 9.48679687 -0.10695312 8.47359375 -0.09765625 7.4296875 C-0.07429007 4.95287199 -0.04153168 2.47656621 0 0 Z " fill="#1AC1DC" transform="translate(133,270)"/>
<path d="M0 0 C4.67793367 3.74234694 4.67793367 3.74234694 5.49316406 6.92578125 C5.67256731 9.13602924 5.68242204 11.2835093 5.625 13.5 C5.65400391 14.61955078 5.65400391 14.61955078 5.68359375 15.76171875 C5.64969654 19.59210371 5.19761844 21.66949281 3.19921875 25.01171875 C-1.67815515 28.04295601 -6.19777853 27.53544251 -11.8125 27.3125 C-12.88693359 27.28994141 -13.96136719 27.26738281 -15.06835938 27.24414062 C-17.7136685 27.18535598 -20.35611413 27.10323957 -23 27 C-23 26.67 -23 26.34 -23 26 C-16.07 26 -9.14 26 -2 26 C-2 25.34 -2 24.68 -2 24 C-0.68 24 0.64 24 2 24 C2.05819424 20.75007554 2.09366116 17.50028565 2.125 14.25 C2.14175781 13.32960937 2.15851563 12.40921875 2.17578125 11.4609375 C2.18222656 10.57148438 2.18867188 9.68203125 2.1953125 8.765625 C2.20578613 7.94868164 2.21625977 7.13173828 2.22705078 6.29003906 C1.97829916 3.78112482 1.25700129 2.16604375 0 0 Z " fill="#1EA9D4" transform="translate(311,219)"/>
<path d="M0 0 C0.66 0 1.32 0 2 0 C2 11.55 2 23.1 2 35 C2.66 35 3.32 35 4 35 C4 35.66 4 36.32 4 37 C2.68 37 1.36 37 0 37 C0 24.79 0 12.58 0 0 Z " fill="#001E5F" transform="translate(261,368)"/>
<path d="M0 0 C1.65 0.33 3.3 0.66 5 1 C5 21.79 5 42.58 5 64 C4.67 64 4.34 64 4 64 C3.67 43.87 3.34 23.74 3 3 C1.68 3 0.36 3 -1 3 C-0.67 2.01 -0.34 1.02 0 0 Z " fill="#246ED7" transform="translate(298,388)"/>
<path d="M0 0 C2.31 0.33 4.62 0.66 7 1 C7 6.28 7 11.56 7 17 C2.05 17 -2.9 17 -8 17 C-8 16.34 -8 15.68 -8 15 C-3.71 15 0.58 15 5 15 C5 11.04 5 7.08 5 3 C3.35 2.67 1.7 2.34 0 2 C0 1.34 0 0.68 0 0 Z " fill="#01093E" transform="translate(312,340)"/>
<path d="M0 0 C0 0.66 0 1.32 0 2 C-2.05078125 2.22786458 -4.1015625 2.45572917 -6.15234375 2.68359375 C-8.01140229 2.81886614 -8.01140229 2.81886614 -9 4 C-10.38160115 4.0927833 -11.76788038 4.11747043 -13.15258789 4.11352539 C-14.03342545 4.11344986 -14.914263 4.11337433 -15.8217926 4.11329651 C-16.77907761 4.10813522 -17.73636261 4.10297394 -18.72265625 4.09765625 C-19.69786728 4.0962413 -20.67307831 4.09482635 -21.67784119 4.09336853 C-24.80609143 4.08775133 -27.93427123 4.07519593 -31.0625 4.0625 C-33.17773334 4.05748722 -35.29296781 4.05292393 -37.40820312 4.04882812 C-42.60549296 4.03777631 -47.80274145 4.02102146 -53 4 C-53 3.67 -53 3.34 -53 3 C-39.47 3 -25.94 3 -12 3 C-12 2.34 -12 1.68 -12 1 C-7.915021 0.45533613 -4.1274515 0 0 0 Z " fill="#1670E3" transform="translate(412,347)"/>
<path d="M0 0 C3.34373475 0.55728913 6.03312999 1.35173889 9 3 C8.67 4.98 8.34 6.96 8 9 C3.16371695 8.00956295 -1.47618873 7.04301154 -6 5 C-6 4.67 -6 4.34 -6 4 C0.625 3.875 0.625 3.875 4 5 C3.67 4.34 3.34 3.68 3 3 C2.01 2.67 1.02 2.34 0 2 C0 1.34 0 0.68 0 0 Z " fill="#17CEF2" transform="translate(320,199)"/>
<path d="M0 0 C3.17032634 1.41217209 5.40874862 3.13649376 7.9375 5.5 C10.81593306 8.08789963 13.20480963 9.93260271 17 11 C16.67 9.35 16.34 7.7 16 6 C18.91517292 7.07401108 20.77810176 7.77810176 23 10 C22.360625 10.28875 21.72125 10.5775 21.0625 10.875 C18.84793921 11.82823451 18.84793921 11.82823451 18 14 C12.89242253 12.40388204 9.14273084 9.25738917 5 6 C4.01 5.2575 3.02 4.515 2 3.75 C1.34 3.1725 0.68 2.595 0 2 C0 1.34 0 0.68 0 0 Z " fill="#1AB1EA" transform="translate(150,331)"/>
<path d="M0 0 C0.33 0 0.66 0 1 0 C1.19588601 3.6454342 1.38030536 7.2913579 1.5625 10.9375 C1.61857422 11.97841797 1.67464844 13.01933594 1.73242188 14.09179688 C1.78076172 15.08115234 1.82910156 16.07050781 1.87890625 17.08984375 C1.9260376 18.00628662 1.97316895 18.92272949 2.02172852 19.86694336 C2 22 2 22 1 23 C-1.31 23 -3.62 23 -6 23 C-6 28.61 -6 34.22 -6 40 C-6.33 40 -6.66 40 -7 40 C-7.02683987 37.02077407 -7.04676037 34.04178705 -7.0625 31.0625 C-7.07087891 30.21236328 -7.07925781 29.36222656 -7.08789062 28.48632812 C-7.09111328 27.67744141 -7.09433594 26.86855469 -7.09765625 26.03515625 C-7.10289307 25.2862915 -7.10812988 24.53742676 -7.11352539 23.76586914 C-7 22 -7 22 -6 21 C-4.02 21 -2.04 21 0 21 C0 14.07 0 7.14 0 0 Z " fill="#1A77C5" transform="translate(319,294)"/>
<path d="M0 0 C1.32 0.66 2.64 1.32 4 2 C4 6.29 4 10.58 4 15 C3.01 15.33 2.02 15.66 1 16 C0.67 12.37 0.34 8.74 0 5 C-0.66 5 -1.32 5 -2 5 C-1.125 1.125 -1.125 1.125 0 0 Z " fill="#09CEFB" transform="translate(310,221)"/>
<path d="M0 0 C0.66 0 1.32 0 2 0 C4.34275785 7.42028881 4.33237105 14.57471141 4.3125 22.3125 C4.32861328 23.58673828 4.34472656 24.86097656 4.36132812 26.17382812 C4.36197266 27.39134766 4.36261719 28.60886719 4.36328125 29.86328125 C4.36775269 31.52290894 4.36775269 31.52290894 4.37231445 33.21606445 C4 36 4 36 2.47729492 37.88354492 C1.74603394 38.43619019 1.74603394 38.43619019 1 39 C1.16113281 37.88238281 1.32226562 36.76476562 1.48828125 35.61328125 C2.08656082 30.79845432 2.19120764 26.03523293 2.1875 21.1875 C2.18814453 20.31254883 2.18878906 19.43759766 2.18945312 18.53613281 C2.13774113 12.19671216 1.58262969 6.1609513 0 0 Z " fill="#000E47" transform="translate(471,253)"/>
<path d="M0 0 C5.07401384 0.45303695 9.20574152 1.32315892 13.91015625 3.2421875 C16.9140179 4.33143827 19.97955957 4.89869992 23.1171875 5.47265625 C25 6 25 6 27 8 C20.66111011 7.83593461 14.97967742 6.55572581 9 4.5625 C8.3412085 4.34505127 7.68241699 4.12760254 7.00366211 3.90356445 C4.12115437 2.90676743 2.18379107 2.18379107 0 0 Z " fill="#1C91D0" transform="translate(173,348)"/>
<path d="M0 0 C0.33 0 0.66 0 1 0 C1.22519106 3.79086457 1.42729249 7.58261058 1.625 11.375 C1.68945312 12.45523437 1.75390625 13.53546875 1.8203125 14.6484375 C1.871875 15.6796875 1.9234375 16.7109375 1.9765625 17.7734375 C2.02893066 18.72653809 2.08129883 19.67963867 2.13525391 20.66162109 C2 23 2 23 0 25 C-3.125 25.125 -3.125 25.125 -6 25 C-6 28.3 -6 31.6 -6 35 C-5.01 35.33 -4.02 35.66 -3 36 C-4.32 36 -5.64 36 -7 36 C-7 32.04 -7 28.08 -7 24 C-5.02 23.34 -3.04 22.68 -1 22 C-0.67 14.74 -0.34 7.48 0 0 Z " fill="#062661" transform="translate(326,298)"/>
<path d="M0 0 C0.58984375 1.85546875 0.58984375 1.85546875 1 4 C-1.60236971 8.18642084 -5.37211606 11.19093148 -9.09765625 14.3515625 C-11.02172784 15.93257339 -11.02172784 15.93257339 -12.49609375 17.7734375 C-13.24052734 18.38058594 -13.24052734 18.38058594 -14 19 C-16.1875 18.6875 -16.1875 18.6875 -18 18 C-17.3709375 17.53851563 -16.741875 17.07703125 -16.09375 16.6015625 C-9.68750072 11.71969182 -4.7585613 6.48653048 0 0 Z " fill="#021049" transform="translate(458,322)"/>
<path d="M0 0 C0.99 0.33 1.98 0.66 3 1 C2.34 2.65 1.68 4.3 1 6 C0.34 6 -0.32 6 -1 6 C-1 7.98 -1 9.96 -1 12 C-2.98 12.99 -2.98 12.99 -5 14 C-5.4390692 5.36497244 -5.4390692 5.36497244 -2 1 C-1.34 0.67 -0.68 0.34 0 0 Z " fill="#0BE3FC" transform="translate(256,218)"/>
<path d="M0 0 C0.33 0 0.66 0 1 0 C1 2.97 1 5.94 1 9 C1.66 9 2.32 9 3 9 C3.433125 10.3921875 3.433125 10.3921875 3.875 11.8125 C4.8875 15.09791667 4.8875 15.09791667 7 18 C8.32 18 9.64 18 11 18 C11.33 19.65 11.66 21.3 12 23 C6.51735996 21.43353142 3.79891081 17.90545732 0.86328125 13.1640625 C-0.23377899 10.4139658 -0.19525441 8.20068528 -0.125 5.25 C-0.09792969 3.77273438 -0.09792969 3.77273438 -0.0703125 2.265625 C-0.04710937 1.51796875 -0.02390625 0.7703125 0 0 Z " fill="#1969D6" transform="translate(196,458)"/>
<path d="M0 0 C1.2065625 0.0309375 1.2065625 0.0309375 2.4375 0.0625 C2.4375 0.7225 2.4375 1.3825 2.4375 2.0625 C1.1175 2.3925 -0.2025 2.7225 -1.5625 3.0625 C-1.8925 14.2825 -2.2225 25.5025 -2.5625 37.0625 C-2.8925 37.0625 -3.2225 37.0625 -3.5625 37.0625 C-3.5871501 31.95386104 -3.60533607 26.84525641 -3.61743164 21.73657227 C-3.62247204 19.99730832 -3.6293043 18.25804864 -3.63793945 16.51879883 C-3.65001792 14.02424063 -3.65573108 11.52973827 -3.66015625 9.03515625 C-3.66531754 8.25286148 -3.67047882 7.47056671 -3.67579651 6.66456604 C-3.67599226 4.79682886 -3.62449694 2.92920796 -3.5625 1.0625 C-2.5625 0.0625 -2.5625 0.0625 0 0 Z " fill="#246ED6" transform="translate(342.5625,366.9375)"/>
<path d="M0 0 C3 1 3 1 4 3 C4.23076923 8.53846154 4.23076923 8.53846154 3 11 C1.125 10.4375 1.125 10.4375 -1 9 C-2.25 5.375 -2.25 5.375 -3 2 C-2.01 2 -1.02 2 0 2 C0 1.34 0 0.68 0 0 Z " fill="#10D3F4" transform="translate(137,303)"/>
<path d="M0 0 C2.31 0.33 4.62 0.66 7 1 C7 1.66 7 2.32 7 3 C7.66 3 8.32 3 9 3 C9.33 3.99 9.66 4.98 10 6 C6.44953334 6 4.89760758 5.75904303 1.75 4.5 C1.04359375 4.2215625 0.3371875 3.943125 -0.390625 3.65625 C-0.92171875 3.4396875 -1.4528125 3.223125 -2 3 C-1.34 2.01 -0.68 1.02 0 0 Z " fill="#08B7FC" transform="translate(418,200)"/>
<path d="M0 0 C0.33 0 0.66 0 1 0 C1.35433404 3.18900636 1.32042729 4.56865557 -0.625 7.1875 C-5.14956204 10.64045524 -9.40544856 11.26640721 -15 11 C-15.33 10.34 -15.66 9.68 -16 9 C-15.33613281 8.91363281 -14.67226563 8.82726562 -13.98828125 8.73828125 C-8.14110314 7.80785437 -4.7860503 6.8852262 -1 2 C-0.67 1.34 -0.34 0.68 0 0 Z " fill="#1E5ED0" transform="translate(354,428)"/>
<path d="M0 0 C0.56332031 0.71800781 1.12664062 1.43601562 1.70703125 2.17578125 C4.68873603 5.8483069 7.87978401 9.30575439 11.07421875 12.79296875 C13 15 13 15 14 17 C12.0625 16.6875 12.0625 16.6875 10 16 C9.67 15.01 9.34 14.02 9 13 C8.071875 12.566875 8.071875 12.566875 7.125 12.125 C4.29066555 10.62447 3.41389497 8.82778993 2 6 C2 5.34 2 4.68 2 4 C1.34 4 0.68 4 0 4 C0 2.68 0 1.36 0 0 Z " fill="#21A8DA" transform="translate(255,270)"/>
<path d="M0 0 C0.66 0.33 1.32 0.66 2 1 C1.67 1.99 1.34 2.98 1 4 C0.34 4 -0.32 4 -1 4 C-1 5.32 -1 6.64 -1 8 C-2.32 8.33 -3.64 8.66 -5 9 C-5.75 7.25 -5.75 7.25 -6 5 C-4.14944202 2.76656796 -2.59616917 1.29808458 0 0 Z " fill="#13F1FA" transform="translate(170,204)"/>
<path d="M0 0 C3.96 1.98 3.96 1.98 8 4 C8 10.6 8 17.2 8 24 C7.67 24 7.34 24 7 24 C6.99742187 22.74703125 6.99484375 21.4940625 6.9921875 20.203125 C6.95466302 18.55204766 6.9155155 16.90100665 6.875 15.25 C6.87886719 14.0125 6.87886719 14.0125 6.8828125 12.75 C6.80560044 10.35642611 6.67403009 8.30042111 6 6 C3.09107686 3.50330162 3.09107686 3.50330162 0 2 C0 1.34 0 0.68 0 0 Z " fill="#1FA7EA" transform="translate(272,289)"/>
<path d="M0 0 C0.85851562 0.34804687 0.85851562 0.34804687 1.734375 0.703125 C-2.52603726 4.46666536 -6.78411411 8.20194462 -11.265625 11.703125 C-11.595625 11.043125 -11.925625 10.383125 -12.265625 9.703125 C-11.605625 9.703125 -10.945625 9.703125 -10.265625 9.703125 C-10.265625 8.713125 -10.265625 7.723125 -10.265625 6.703125 C-8.65625 4.84375 -8.65625 4.84375 -6.515625 2.953125 C-5.81953125 2.31890625 -5.1234375 1.6846875 -4.40625 1.03125 C-2.265625 -0.296875 -2.265625 -0.296875 0 0 Z " fill="#022241" transform="translate(265.265625,205.296875)"/>
<path d="M0 0 C3.465 1.98 3.465 1.98 7 4 C4.92446352 4.5534764 3.15634036 5 1 5 C2.32 6.65 3.64 8.3 5 10 C1.60406522 10 0.93380119 9.47834052 -1.6875 7.5 C-2.31011719 7.0359375 -2.93273437 6.571875 -3.57421875 6.09375 C-4.04472656 5.7328125 -4.51523437 5.371875 -5 5 C-3 4 -3 4 0 4 C0 2.68 0 1.36 0 0 Z " fill="#25D1EA" transform="translate(376,147)"/>
<path d="M0 0 C0.99 0 1.98 0 3 0 C3 0.66 3 1.32 3 2 C4.32 2.33 5.64 2.66 7 3 C7 3.99 7 4.98 7 6 C3.97580475 5.41196203 0.98241547 4.77321882 -2 4 C-1.34 2.68 -0.68 1.36 0 0 Z " fill="#09B8FC" transform="translate(170,341)"/>
<path d="M0 0 C2 1.5 2 1.5 4 4 C4.62388198 8.91307062 4.75777063 10.86334406 2 15 C1.34 15.66 0.68 16.32 0 17 C0 15.68 0 14.36 0 13 C0.66 13 1.32 13 2 13 C2 10.03 2 7.06 2 4 C1.34 4 0.68 4 0 4 C0 2.68 0 1.36 0 0 Z " fill="#021C5B" transform="translate(267,416)"/>
<path d="M0 0 C-1.89192475 0.98669759 -3.78871978 1.9640602 -5.6875 2.9375 C-6.74324219 3.48277344 -7.79898438 4.02804688 -8.88671875 4.58984375 C-11.66234047 5.8470576 -14.00272126 6.56069569 -17 7 C-14.64161518 4.37098086 -12.19877023 2.85350658 -9.0625 1.25 C-8.20785156 0.80140625 -7.35320312 0.3528125 -6.47265625 -0.109375 C-3.76741687 -1.08377402 -2.64327318 -1.00579304 0 0 Z " fill="#022845" transform="translate(242,148)"/>
<path d="M0 0 C1.98 0 3.96 0 6 0 C3.4033438 2.5966562 1.06184625 3.10687691 -2.4375 4.1875 C-3.59121094 4.55230469 -4.74492187 4.91710937 -5.93359375 5.29296875 C-9 6 -9 6 -12 5 C-7.77050005 2.58314288 -4.87664009 1.65166856 0 2 C0 1.34 0 0.68 0 0 Z " fill="#1965D1" transform="translate(418,349)"/>
<path d="M0 0 C2.00720923 0.28674418 4.0085944 0.61866701 6 1 C5 4 5 4 3.3125 4.875 C-0.03168681 5.05576685 -2.14198685 3.62387111 -5 2 C-4.360625 1.855625 -3.72125 1.71125 -3.0625 1.5625 C-1.02454854 1.18992819 -1.02454854 1.18992819 0 0 Z " fill="#12B6F4" transform="translate(266,287)"/>
<path d="M0 0 C0 3.40721034 -0.67085845 4.35987259 -2.4375 7.1875 C-4.98644539 11.57975054 -5.72499999 14.95833312 -6 20 C-6.33 20 -6.66 20 -7 20 C-7.81704802 12.75248149 -6.77155797 8.58159925 -2.41015625 2.71484375 C-1 1 -1 1 0 0 Z " fill="#1763C7" transform="translate(245,408)"/>
<path d="M0 0 C1.44243959 2.57578498 2.17230642 4.7138409 2.875 7.625 C3.64410455 11.07342601 3.64410455 11.07342601 6.125 12.4375 C6.74375 12.623125 7.3625 12.80875 8 13 C5.125 13.125 5.125 13.125 2 13 C-0.43773135 10.56226865 -0.61487376 9.38911094 -1 6 C-0.5625 2.6875 -0.5625 2.6875 0 0 Z " fill="#032751" transform="translate(401,190)"/>
<path d="M0 0 C0.33 0 0.66 0 1 0 C1.86140345 11.82994076 1.86140345 11.82994076 -1.5 15.75 C-2.325 16.4925 -3.15 17.235 -4 18 C-4.66 17.67 -5.32 17.34 -6 17 C-5.65066406 16.52691406 -5.30132812 16.05382812 -4.94140625 15.56640625 C-1.38613346 10.39967837 -0.15919246 6.25192211 0 0 Z " fill="#051456" transform="translate(404,460)"/>
<path d="M0 0 C0 0.99 0 1.98 0 3 C-1.38782485 3.8466034 -2.78569397 4.67675339 -4.1875 5.5 C-4.96480469 5.9640625 -5.74210937 6.428125 -6.54296875 6.90625 C-9.24103386 8.10729647 -11.0806982 8.20741043 -14 8 C-11.53379711 5.53379711 -9.00595031 4.40716717 -5.875 2.875 C-4.77929688 2.33617187 -3.68359375 1.79734375 -2.5546875 1.2421875 C-1.71164062 0.83226562 -0.86859375 0.42234375 0 0 Z " fill="#011451" transform="translate(436,343)"/>
<path d="M0 0 C3.20547958 1.43024761 5.5354446 3.20433073 8.125 5.5625 C10.86038045 8.07679216 10.86038045 8.07679216 14 10 C13.67 10.66 13.34 11.32 13 12 C10.32610077 10.0095043 7.66142477 8.00713735 5 6 C4.01 5.2575 3.02 4.515 2 3.75 C1.34 3.1725 0.68 2.595 0 2 C0 1.34 0 0.68 0 0 Z " fill="#25ADDE" transform="translate(150,331)"/>
<path d="M0 0 C0.33 0.99 0.66 1.98 1 3 C-0.25 5.375 -0.25 5.375 -2 8 C-2.7734375 9.3921875 -2.7734375 9.3921875 -3.5625 10.8125 C-4.036875 11.534375 -4.51125 12.25625 -5 13 C-5.66 13 -6.32 13 -7 13 C-5.58832253 7.73829306 -3.25149768 4.27828642 0 0 Z " fill="#012443" transform="translate(148,230)"/>
<path d="M0 0 C1.44977894 2.34112451 2.04314411 3.5796929 1.7578125 6.359375 C1.54898438 7.14828125 1.34015625 7.9371875 1.125 8.75 C0.92132813 9.54921875 0.71765625 10.3484375 0.5078125 11.171875 C0.34023437 11.77515625 0.17265625 12.3784375 0 13 C-2.31 13.33 -4.62 13.66 -7 14 C-6.37609375 13.79632813 -5.7521875 13.59265625 -5.109375 13.3828125 C-2.05854675 11.38282509 -1.99476154 9.37537926 -1.25 5.875 C-1.00765625 4.77929688 -0.7653125 3.68359375 -0.515625 2.5546875 C-0.34546875 1.71164063 -0.1753125 0.86859375 0 0 Z " fill="#29D3E4" transform="translate(193,183)"/>
<path d="M0 0 C0 0.66 0 1.32 0 2 C-1.4609375 3.4375 -1.4609375 3.4375 -3.375 5 C-5.34164804 6.61864036 -7.19674196 8.19674196 -9 10 C-9 6 -9 6 -7.5390625 4.296875 C-6.90742188 3.78640625 -6.27578125 3.2759375 -5.625 2.75 C-4.99851562 2.22921875 -4.37203125 1.7084375 -3.7265625 1.171875 C-2 0 -2 0 0 0 Z " fill="#2257CA" transform="translate(377,445)"/>
<path d="M0 0 C-1.55500981 3.81684226 -4.03595495 6.19195732 -7 9 C-7.33 7.35 -7.66 5.7 -8 4 C-2.25 0 -2.25 0 0 0 Z " fill="#021241" transform="translate(335,293)"/>
<path d="M0 0 C1.65 0.99 3.3 1.98 5 3 C4.34 4.32 3.68 5.64 3 7 C0.525 6.01 0.525 6.01 -2 5 C-2 4.01 -2 3.02 -2 2 C-1.34 2 -0.68 2 0 2 C0 1.34 0 0.68 0 0 Z " fill="#0FD3FC" transform="translate(393,164)"/>
<path d="M0 0 C4.455 0.99 4.455 0.99 9 2 C9 2.66 9 3.32 9 4 C11.97 4 14.94 4 18 4 C18 4.33 18 4.66 18 5 C10.71304215 5.474377 6.02818509 5.28670939 0 1 C0 0.67 0 0.34 0 0 Z " fill="#2050BA" transform="translate(287,487)"/>
<path d="M0 0 C-0.33 0.99 -0.66 1.98 -1 3 C-8.26 2.67 -15.52 2.34 -23 2 C-23 1.67 -23 1.34 -23 1 C-19.54170353 0.83256252 -16.08335707 0.66618079 -12.625 0.5 C-11.64015625 0.45230469 -10.6553125 0.40460938 -9.640625 0.35546875 C-8.69960938 0.31035156 -7.75859375 0.26523438 -6.7890625 0.21875 C-5.91975098 0.17685547 -5.05043945 0.13496094 -4.15478516 0.09179688 C-2.77077412 0.03283606 -1.38526637 0 0 0 Z " fill="#001B42" transform="translate(313,245)"/>
<path d="M0 0 C0.33 0 0.66 0 1 0 C1.44539877 8.7595092 1.44539877 8.7595092 -2 13 C-2.66 13 -3.32 13 -4 13 C-3.52140759 11.39566191 -3.04210442 9.79153584 -2.5625 8.1875 C-2.29566406 7.29417969 -2.02882813 6.40085937 -1.75390625 5.48046875 C-1.19612127 3.64526945 -0.60655425 1.81966274 0 0 Z " fill="#166AD4" transform="translate(464,293)"/>
<path d="M0 0 C0.94875 0.309375 1.8975 0.61875 2.875 0.9375 C7.50938425 2.27928271 12.20552041 2.63342007 17 3 C17 3.33 17 3.66 17 4 C15.10489301 4.08160748 13.20875496 4.13946459 11.3125 4.1875 C9.72888672 4.23970703 9.72888672 4.23970703 8.11328125 4.29296875 C4.63392401 3.96555119 2.7919812 3.05643142 0 1 C0 0.67 0 0.34 0 0 Z " fill="#1D52BA" transform="translate(331,440)"/>
<path d="M0 0 C3.5218253 1.95656961 6.34442785 3.95100975 9 7 C9 7.66 9 8.32 9 9 C7.125 8.75 7.125 8.75 5 8 C4.30062468 6.68352881 3.63270867 5.34977849 3 4 C2.01 3.67 1.02 3.34 0 3 C0 2.01 0 1.02 0 0 Z " fill="#196FDC" transform="translate(266,406)"/>
<path d="M0 0 C3.96996957 1.32332319 5.76036395 4.0089399 8.14453125 7.24609375 C9 9 9 9 8 12 C6.66382103 10.18959679 5.33112616 8.3766216 4 6.5625 C3.2575 5.55316406 2.515 4.54382813 1.75 3.50390625 C0 1 0 1 0 0 Z " fill="#1A8DDE" transform="translate(448,225)"/>
<path d="M0 0 C2.08379509 3.84700632 3.49686624 7.90054429 5 12 C4.01 12 3.02 12 2 12 C-0.60018816 8.09971775 -0.15085514 4.52565431 0 0 Z " fill="#021A61" transform="translate(287,468)"/>
<path d="M0 0 C1.15224028 0.92961422 2.29659176 1.8690125 3.4375 2.8125 C4.07558594 3.33457031 4.71367187 3.85664063 5.37109375 4.39453125 C7 6 7 6 8 9 C5.50638429 7.79618552 3.31856917 6.54571278 1 5 C0.3125 2.375 0.3125 2.375 0 0 Z " fill="#011545" transform="translate(443,221)"/>
<path d="M0 0 C0 1.98 0 3.96 0 6 C-0.99 6 -1.98 6 -3 6 C-3.33 4.35 -3.66 2.7 -4 1 C-1 0 -1 0 0 0 Z " fill="#0971F4" transform="translate(233,455)"/>
<path d="M0 0 C2.96052484 3.36423277 3.92289822 6.69159287 5 11 C4.34 11 3.68 11 3 11 C0 4.5 0 4.5 0 0 Z " fill="#177AD3" transform="translate(464,237)"/>
<path d="M0 0 C1.98 0.99 1.98 0.99 4 2 C3.34 3.98 2.68 5.96 2 8 C1.34 8 0.68 8 0 8 C0 5.36 0 2.72 0 0 Z " fill="#010A3E" transform="translate(309,365)"/>
<path d="M0 0 C2.64465038 3.1254959 3.84414715 6.08788267 5 10 C4.01 9.67 3.02 9.34 2 9 C2 7.68 2 6.36 2 5 C1.34 5 0.68 5 0 5 C0 3.35 0 1.7 0 0 Z " fill="#01184D" transform="translate(457,239)"/>
<path d="M0 0 C-2.97 1.32 -5.94 2.64 -9 4 C-9.66 3.34 -10.32 2.68 -11 2 C-4.5 -1.125 -4.5 -1.125 0 0 Z " fill="#032E4B" transform="translate(290,204)"/>
<path d="M0 0 C0.33 1.32 0.66 2.64 1 4 C-0.32 4.99 -1.64 5.98 -3 7 C-3.66 6.67 -4.32 6.34 -5 6 C-3.35 4.02 -1.7 2.04 0 0 Z " fill="#26D7E5" transform="translate(210,157)"/>
<path d="M0 0 C-4.1795645 2.78637633 -6.14668677 1.79562512 -11 1 C-11 0.67 -11 0.34 -11 0 C-3.57142857 -1.28571429 -3.57142857 -1.28571429 0 0 Z " fill="#020D4A" transform="translate(392,483)"/>
<path d="M0 0 C4.29 0 8.58 0 13 0 C13 0.33 13 0.66 13 1 C12.24074219 1.06058594 11.48148437 1.12117187 10.69921875 1.18359375 C9.70535156 1.26738281 8.71148437 1.35117188 7.6875 1.4375 C6.70136719 1.51871094 5.71523438 1.59992188 4.69921875 1.68359375 C1.90624401 1.91812559 1.90624401 1.91812559 -1 3 C-0.67 2.01 -0.34 1.02 0 0 Z " fill="#001130" transform="translate(287,217)"/>
<path d="M0 0 C5.57142857 5.14285714 5.57142857 5.14285714 6 9 C3.35247996 6.42215154 1.05567935 4.08351902 -1 1 C-0.67 0.67 -0.34 0.34 0 0 Z " fill="#021D44" transform="translate(343,212)"/>
<path d="M0 0 C2.31 0 4.62 0 7 0 C7 0.66 7 1.32 7 2 C7.66 2 8.32 2 9 2 C9 2.66 9 3.32 9 4 C6.03 3.01 3.06 2.02 0 1 C0 0.67 0 0.34 0 0 Z " fill="#20C1E0" transform="translate(314,203)"/>
<path d="M0 0 C1.16959987 0.97566112 2.33561177 1.955625 3.5 2.9375 C4.1496875 3.48277344 4.799375 4.02804687 5.46875 4.58984375 C5.9740625 5.05519531 6.479375 5.52054687 7 6 C7 6.33 7 6.66 7 7 C5.35 7 3.7 7 2 7 C0.5393715 4.35261084 0 3.10551666 0 0 Z " fill="#1968D8" transform="translate(203,468)"/>
<path d="M0 0 C4.875 4.75 4.875 4.75 6 7 C3.83125748 6.49396008 2.00032373 6.00016187 0 5 C0 3.35 0 1.7 0 0 Z " fill="#031555" transform="translate(324,433)"/>
<path d="M0 0 C1.98 0 3.96 0 6 0 C6.33 1.32 6.66 2.64 7 4 C6.01 4.33 5.02 4.66 4 5 C4 3.68 4 2.36 4 1 C2.68 0.67 1.36 0.34 0 0 Z " fill="#1A88D8" transform="translate(241,350)"/>
<path d="M0 0 C0.33 0.66 0.66 1.32 1 2 C-1.83430453 5.2542015 -3.68607774 6.5206753 -8 7 C-5.42215154 4.35247996 -3.08351902 2.05567935 0 0 Z " fill="#022445" transform="translate(166,213)"/>
<path d="M0 0 C0.33 1.32 0.66 2.64 1 4 C0.01 4.33 -0.98 4.66 -2 5 C-3.20882096 7.00016466 -3.20882096 7.00016466 -4 9 C-4 5.00095031 -2.27413033 3.19799578 0 0 Z " fill="#2EDFEC" transform="translate(204,164)"/>
</svg>